<svg xmlns="http://www.w3.org/2000/svg" xmlns:xlink="http://www.w3.org/1999/xlink" width="181.944" height="171.185" viewBox="0 0 181.944 171.185">
  <defs>
    <style>
      .cls-1 {
        fill: #fff;
      }

      .cls-2, .cls-3, .cls-4 {
        fill: none;
        stroke-linecap: round;
      }

      .cls-2 {
        stroke: #ffb89b;
      }

      .cls-2, .cls-3 {
        stroke-width: 4px;
      }

      .cls-3 {
        stroke: #d3f3ff;
      }

      .cls-3, .cls-4 {
        stroke-linejoin: round;
        stroke-miterlimit: 10;
      }

      .cls-4 {
        stroke: #2d346a;
        stroke-width: 6px;
      }

      .cls-5 {
        fill: #fcbca3;
      }

      .cls-6 {
        fill: #ffb89b;
      }

      .cls-7 {
        fill: #ff8250;
      }

      .cls-8 {
        fill: #08b;
      }

      .cls-9 {
        filter: url(#Path_1276);
      }
    </style>
    <filter id="Path_1276" x="0" y="0" width="181.944" height="171.185" filterUnits="userSpaceOnUse">
      <feOffset dy="8" input="SourceAlpha"/>
      <feGaussianBlur stdDeviation="10" result="blur"/>
      <feFlood flood-color="#d8f4ff"/>
      <feComposite operator="in" in2="blur"/>
      <feComposite in="SourceGraphic"/>
    </filter>
  </defs>
  <g id="analyst-icon" transform="translate(-982.999 -3262)">
    <g id="Group_1134" data-name="Group 1134" transform="translate(1001 3284)">
      <g id="Graphic" transform="translate(0 0)">
        <g id="stars" transform="translate(0)">
          <g class="cls-9" transform="matrix(1, 0, 0, 1, -18, -22)">
            <path id="Path_1276-2" data-name="Path 1276" class="cls-1" d="M126.444,64.663A60.972,60.972,0,1,0,30.9,114.876h69.156A60.894,60.894,0,0,0,126.444,64.663Z" transform="translate(25.5 18.31)"/>
          </g>
          <path id="Path_1594" data-name="Path 1594" class="cls-2" d="M0,0H78.9" transform="translate(33.642 111.144)"/>
          <line id="Line_120" data-name="Line 120" class="cls-3" x2="51.549" transform="translate(47.319 118.319)"/>
          <line id="Line_121" data-name="Line 121" class="cls-3" x2="10.361" transform="translate(63.429 125.492)"/>
          <line id="Line_122" data-name="Line 122" class="cls-3" x2="2.769" transform="translate(80.114 125.492)"/>
          <path id="Path_1281" data-name="Path 1281" class="cls-4" d="M46.2,19.072" transform="translate(58.376 14.99)"/>
          <path id="Path_1282" data-name="Path 1282" class="cls-5" d="M63.547,18.687a2.53,2.53,0,0,0-2.661-2.665H60.86a.887.887,0,0,1,.022-1.774,2.53,2.53,0,0,0,2.665-2.661.887.887,0,0,1,1.774,0,2.53,2.53,0,0,0,2.665,2.661.887.887,0,0,1,0,1.774,2.529,2.529,0,0,0-2.661,2.661v0c0,.007,0,.013,0,.013v.009a.887.887,0,0,1-1.774-.022Z" transform="translate(75.175 4.801)"/>
          <path id="Path_1283" data-name="Path 1283" class="cls-6" d="M60.274,52.043a1.265,1.265,0,0,0-1.33-1.333h-.011a.444.444,0,0,1,.009-.887,1.265,1.265,0,0,0,1.333-1.33.443.443,0,1,1,.887,0,1.265,1.265,0,0,0,1.333,1.33.443.443,0,0,1,0,.887,1.264,1.264,0,0,0-1.33,1.33v0a.022.022,0,0,1,0,.007h0v0a.444.444,0,0,1-.887-.011Z" transform="translate(75.281 55.67)"/>
          <path id="Path_1284" data-name="Path 1284" class="cls-6" d="M7.274,16.416a1.265,1.265,0,0,0-1.33-1.333H5.932a.444.444,0,0,1,.009-.887,1.265,1.265,0,0,0,1.333-1.33.443.443,0,0,1,.887,0A1.265,1.265,0,0,0,9.493,14.2a.443.443,0,0,1,0,.887,1.264,1.264,0,0,0-1.33,1.33v0a.022.022,0,0,1,0,.007h0v0a.444.444,0,0,1-.887-.011Z" transform="translate(4.203 0.715)"/>
          <path id="Path_1285" data-name="Path 1285" class="cls-7" d="M4.336,51.785a3.092,3.092,0,0,0-3.252-3.257H1.051a1.084,1.084,0,0,1,.027-2.168,3.092,3.092,0,0,0,3.257-3.252,1.084,1.084,0,1,1,2.168,0A3.092,3.092,0,0,0,9.761,46.36a1.084,1.084,0,0,1-.005,2.168A3.092,3.092,0,0,0,6.5,51.78v.005c0,.008,0,.016,0,.016v.011a1.084,1.084,0,0,1-2.168-.027Z" transform="translate(0 41.941)"/>
          <path id="Path_1286" data-name="Path 1286" class="cls-7" d="M56.647,40.743a2.53,2.53,0,0,0-2.661-2.665H53.96a.887.887,0,0,1,.022-1.774,2.53,2.53,0,0,0,2.665-2.661.887.887,0,1,1,1.774,0A2.53,2.53,0,0,0,61.086,36.3a.887.887,0,0,1,0,1.774,2.529,2.529,0,0,0-2.661,2.661v0c0,.007,0,.013,0,.013v.009a.887.887,0,0,1-1.774-.022Z" transform="translate(66.776 31.647)"/>
        </g>
      </g>
    </g>
    <path id="Path_1202" data-name="Path 1202" class="cls-8" d="M31.384,43.177a11.045,11.045,0,0,0,.318,2.7H3V40.005A4.219,4.219,0,0,1,4.486,36.78a66.8,66.8,0,0,1,10.929-7.189c.265.581,2.812,6.5,4.35,8.67,0,0,1.539-5.445,4.085-3.965,0,0-5.146-3.965-6.791-5.974V24.463a9.563,9.563,0,0,1-1.22-3.278c-.477-.053-1.061-.687-1.7-2.96-.8-2.907-.053-3.489.69-3.542-.053-.264-.106-.476-.159-.74h0a9.014,9.014,0,0,1,0-4.123A9.725,9.725,0,0,1,17.06,5.591a14.768,14.768,0,0,1,2.228-1.85,7.673,7.673,0,0,1,2.175-1.11h0a8.059,8.059,0,0,1,1.963-.37A7.888,7.888,0,0,1,28.36,3.318a5.879,5.879,0,0,1,2.387,2.22s3.979.264,2.653,8.405c-.053.264-.106.476-.159.74.743,0,1.539.582.69,3.542-.637,2.273-1.273,2.907-1.7,2.96a9.563,9.563,0,0,1-1.22,3.278v3.859c-1.645,2.009-6.791,5.974-6.791,5.974,2.547-1.427,4.085,3.965,4.085,3.965,1.539-2.167,4.085-8.088,4.35-8.67,1.22.634,3.077,1.692,5.2,3.013A11.974,11.974,0,0,0,31.384,43.177Zm16.871-.952a5.834,5.834,0,0,1,.106,1,5,5,0,0,1-3.82,4.863v4.6a9.6,9.6,0,0,0,8.33-9.515,9.113,9.113,0,0,0-.477-2.96Zm-14.59.952a9.553,9.553,0,0,0,8.383,9.463V48.093a5.006,5.006,0,0,1,0-9.727v-4.6A9.5,9.5,0,0,0,33.666,43.177ZM51.333,38a9.538,9.538,0,0,0-6.844-4.282v4.6a4.911,4.911,0,0,1,2.653,1.692Z" transform="translate(1045.138 3319.436)"/>
  </g>
</svg>
