<svg xmlns="http://www.w3.org/2000/svg" xmlns:xlink="http://www.w3.org/1999/xlink" width="376.678" height="350.804" viewBox="0 0 376.678 350.804">
  <defs>
    <style>
      .cls-1 {
        fill: #fff;
      }

      .cls-2, .cls-3, .cls-4 {
        fill: none;
        stroke-linecap: round;
      }

      .cls-2 {
        stroke: #ffb89b;
        stroke-width: 10px;
      }

      .cls-3 {
        stroke: #d3f3ff;
        stroke-width: 8px;
      }

      .cls-3, .cls-4 {
        stroke-linejoin: round;
        stroke-miterlimit: 10;
      }

      .cls-4 {
        stroke: #2d346a;
        stroke-width: 6px;
      }

      .cls-5 {
        fill: #fcbca3;
      }

      .cls-6 {
        fill: #ffb89b;
      }

      .cls-7 {
        fill: #ff8250;
      }

      .cls-8 {
        fill: #d3f3ff;
      }

      .cls-9 {
        fill: #0c8ebe;
      }

      .cls-10 {
        filter: url(#Path_1276);
      }
    </style>
    <filter id="Path_1276" x="1.055" y="0" width="375.623" height="347.774" filterUnits="userSpaceOnUse">
      <feOffset dy="8" input="SourceAlpha"/>
      <feGaussianBlur stdDeviation="10" result="blur"/>
      <feFlood flood-color="#d8f4ff"/>
      <feComposite operator="in" in2="blur"/>
      <feComposite in="SourceGraphic"/>
    </filter>
  </defs>
  <g id="Ask-An-Analyst" transform="translate(-421 -3320)">
    <g id="stars" transform="translate(-4761.45 2132)">
      <g class="cls-10" transform="matrix(1, 0, 0, 1, 5182.45, 1188)">
        <path id="Path_1276-2" data-name="Path 1276" class="cls-1" d="M320.123,161.5A157.812,157.812,0,1,0,72.818,291.465H251.811A157.61,157.61,0,0,0,320.123,161.5Z" transform="translate(26.56 18.31)"/>
      </g>
      <path id="Path_1594" data-name="Path 1594" class="cls-2" d="M0,0H204.225" transform="translate(5269.522 1497.67)"/>
      <line id="Line_120" data-name="Line 120" class="cls-3" x2="133.422" transform="translate(5304.924 1516.24)"/>
      <line id="Line_121" data-name="Line 121" class="cls-3" x2="26.816" transform="translate(5346.621 1534.804)"/>
      <line id="Line_122" data-name="Line 122" class="cls-3" x2="7.168" transform="translate(5389.804 1534.804)"/>
      <path id="Path_1281" data-name="Path 1281" class="cls-4" d="M46.2,19.072" transform="translate(5406.918 1279.089)"/>
      <path id="Path_1282" data-name="Path 1282" class="cls-5" d="M69.182,31.371c-.011-1.153-.407-6.9-6.886-6.9h-.069a2.3,2.3,0,0,1,.057-4.591c1.153-.011,6.9-.407,6.9-6.886a2.3,2.3,0,0,1,4.591,0c0,6.479,5.744,6.875,6.9,6.886a2.3,2.3,0,0,1-.012,4.591c-6.479,0-6.875,5.75-6.886,6.886v.011c0,.017-.006.034,0,.034v.023a2.3,2.3,0,0,1-4.591-.057Z" transform="translate(5472.316 1239.423)"/>
      <path id="Path_1283" data-name="Path 1283" class="cls-6" d="M63.091,58.385a3.274,3.274,0,0,0-3.443-3.449h-.029a1.148,1.148,0,0,1,.023-2.3A3.274,3.274,0,0,0,63.091,49.2a1.148,1.148,0,1,1,2.3,0,3.274,3.274,0,0,0,3.449,3.443,1.148,1.148,0,0,1-.006,2.3,3.271,3.271,0,0,0-3.443,3.443v.006a.058.058,0,0,1-.006.017h.006v.011a1.148,1.148,0,0,1-2.3-.029Z" transform="translate(5470.208 1430.405)"/>
      <path id="Path_1284" data-name="Path 1284" class="cls-6" d="M10.091,22.758a3.274,3.274,0,0,0-3.443-3.449H6.619a1.148,1.148,0,0,1,.023-2.3,3.274,3.274,0,0,0,3.449-3.443,1.148,1.148,0,0,1,2.3,0,3.274,3.274,0,0,0,3.449,3.443,1.148,1.148,0,0,1-.006,2.3,3.272,3.272,0,0,0-3.443,3.443v.006a.058.058,0,0,1-.006.017h.006v.011a1.148,1.148,0,0,1-2.3-.029Z" transform="translate(5202.063 1231.582)"/>
      <path id="Path_1285" data-name="Path 1285" class="cls-7" d="M11.222,67.288c-.014-1.41-.5-8.431-8.417-8.431H2.721a2.806,2.806,0,0,1,.07-5.611c1.41-.014,8.431-.5,8.431-8.417a2.806,2.806,0,1,1,5.611,0c0,7.919,7.021,8.4,8.431,8.417a2.806,2.806,0,0,1-.014,5.611c-7.919,0-8.4,7.028-8.417,8.417v.014c0,.021-.007.042,0,.042v.028a2.806,2.806,0,0,1-5.611-.07Z" transform="translate(5182.45 1385.299)"/>
      <path id="Path_1286" data-name="Path 1286" class="cls-7" d="M62.282,53.427c-.011-1.153-.407-6.9-6.886-6.9h-.069a2.3,2.3,0,0,1,.057-4.591c1.153-.011,6.9-.407,6.9-6.886a2.3,2.3,0,1,1,4.591,0c0,6.479,5.744,6.875,6.9,6.886a2.3,2.3,0,0,1-.011,4.591c-6.479,0-6.875,5.75-6.886,6.886v.011c0,.017-.006.034,0,.034v.023a2.3,2.3,0,0,1-4.591-.057Z" transform="translate(5439.62 1343.937)"/>
    </g>
    <g id="icon" transform="translate(513.342 3428)">
      <path id="Path_555" data-name="Path 555" class="cls-8" d="M139.061,25.383V37.35l12.314-5.769Z"/>
      <path id="Path_554" data-name="Path 554" class="cls-8" d="M35.224,59.448A22.224,22.224,0,1,0,13,37.224,22.224,22.224,0,0,0,35.224,59.448Zm0-37.04A14.816,14.816,0,1,1,20.408,37.224,14.816,14.816,0,0,1,35.224,22.408Z" transform="translate(26.345 11.618)"/>
      <path id="Path_545" data-name="Path 545" class="cls-9" d="M6,60.119V74.911a2.466,2.466,0,0,0,1.362,2.205L10.931,78.9v23.13A2.465,2.465,0,0,0,13.4,104.5H38.05a2.465,2.465,0,0,0,2.465-2.465V78.9l3.568-1.784a2.466,2.466,0,0,0,1.363-2.205V60.119a9.88,9.88,0,0,0-8.49-9.768,12.116,12.116,0,0,0,1.094-5.025,12.327,12.327,0,0,0-24.654,0,12.116,12.116,0,0,0,1.094,5.025A9.88,9.88,0,0,0,6,60.119Zm4.931,0a4.936,4.936,0,0,1,4.931-4.931h3.4a2.466,2.466,0,0,0,1.623-4.322,7.284,7.284,0,0,1-2.558-5.54,7.4,7.4,0,0,1,14.792,0,7.284,7.284,0,0,1-2.558,5.54,2.466,2.466,0,0,0,1.623,4.322h3.4a4.936,4.936,0,0,1,4.931,4.931V73.387l-3.568,1.784a2.466,2.466,0,0,0-1.363,2.205V99.565H15.861V77.377A2.466,2.466,0,0,0,14.5,75.172l-3.568-1.784Z" transform="translate(23.519 45.427)"/>
      <path id="Path_546" data-name="Path 546" class="cls-9" d="M15.12,57.638h4.931V49.3l3.567-1.782-2.2-4.413-3.829,1.916-3.829-1.916-2.2,4.413L15.12,49.3Z" transform="translate(31.656 60.234)"/>
      <path id="Path_547" data-name="Path 547" class="cls-9" d="M147.457,11.861H78.427V6.931h7.4V2H66.1V6.931h7.4v4.931H4.465A2.465,2.465,0,0,0,2,14.327v98.615H6.931V16.792H144.992v93.684H56.238v4.931H73.5v18.358l-18.564,11.6,2.612,4.18L73.5,139.579v10.343h4.931V139.579l15.951,9.968,2.612-4.18-18.564-11.6V115.407h69.03a2.465,2.465,0,0,0,2.465-2.465V14.327A2.465,2.465,0,0,0,147.457,11.861Z" transform="translate(17.658)"/>
      <path id="Path_548" data-name="Path 548" class="cls-9" d="M9.691,30.66A2.464,2.464,0,0,0,8,33v8.236a2.467,2.467,0,0,0,1.69,2.34L13.983,45l.63,1.517L12.8,50.322a2.468,2.468,0,0,0,.218,2.487,27.153,27.153,0,0,0,6.408,6.4,2.468,2.468,0,0,0,2.487.219l3.805-1.808,1.517.631,1.422,4.293A2.465,2.465,0,0,0,31,64.238h8.236a2.465,2.465,0,0,0,2.34-1.691l1.389-4.2q.831-.307,1.641-.684l3.714,1.765a2.457,2.457,0,0,0,2.487-.219,27.136,27.136,0,0,0,6.407-6.407,2.464,2.464,0,0,0,.218-2.485l-1.764-3.715q.374-.809.683-1.639l4.2-1.392a2.467,2.467,0,0,0,1.69-2.34V33a2.464,2.464,0,0,0-1.692-2.34L56.352,29.27q-.309-.831-.683-1.639l1.765-3.715a2.468,2.468,0,0,0-.218-2.487,27.153,27.153,0,0,0-6.408-6.4,2.458,2.458,0,0,0-2.487-.219L44.608,16.57q-.809-.376-1.641-.684l-1.389-4.2A2.465,2.465,0,0,0,39.237,10H31a2.465,2.465,0,0,0-2.34,1.691l-1.422,4.292-1.517.631-3.805-1.808a2.469,2.469,0,0,0-2.487.219,27.1,27.1,0,0,0-6.408,6.407,2.466,2.466,0,0,0-.217,2.485l1.807,3.806-.63,1.517ZM16.6,33.565a2.465,2.465,0,0,0,1.5-1.394l1.482-3.57a2.466,2.466,0,0,0-.051-2L17.9,23.155A22.1,22.1,0,0,1,21.155,19.9L24.6,21.537a2.474,2.474,0,0,0,2,.051l3.57-1.483a2.466,2.466,0,0,0,1.394-1.5l1.216-3.672h4.676L38.673,18.6a2.467,2.467,0,0,0,1.62,1.582,17.67,17.67,0,0,1,3.131,1.3,2.479,2.479,0,0,0,2.217.051L49.083,19.9a22.282,22.282,0,0,1,3.254,3.253L50.7,26.6a2.464,2.464,0,0,0,.052,2.217,17.524,17.524,0,0,1,1.3,3.13,2.463,2.463,0,0,0,1.584,1.62l3.672,1.216v4.676l-3.673,1.216a2.461,2.461,0,0,0-1.583,1.62,17.524,17.524,0,0,1-1.3,3.13A2.468,2.468,0,0,0,50.7,47.64l1.635,3.443a22.215,22.215,0,0,1-3.253,3.253L45.641,52.7a2.456,2.456,0,0,0-2.217.051,17.67,17.67,0,0,1-3.131,1.3,2.467,2.467,0,0,0-1.62,1.582l-1.216,3.672H32.781l-1.216-3.672a2.466,2.466,0,0,0-1.394-1.5L26.6,52.65a2.484,2.484,0,0,0-2,.051l-3.442,1.635A22.283,22.283,0,0,1,17.9,51.083l1.636-3.443a2.466,2.466,0,0,0,.051-2l-1.482-3.57a2.466,2.466,0,0,0-1.5-1.394l-3.673-1.216V34.781Z" transform="translate(26.45 11.723)"/>
      <path id="Path_549" data-name="Path 549" class="cls-9" d="M27.792,44.584A14.792,14.792,0,1,0,13,29.792,14.792,14.792,0,0,0,27.792,44.584Zm0-24.654a9.861,9.861,0,1,1-9.861,9.861A9.861,9.861,0,0,1,27.792,19.931Z" transform="translate(33.777 19.05)"/>
      <path id="Path_550" data-name="Path 550" class="cls-9" d="M34.172,54.033a7.3,7.3,0,0,0-2.017.315L26.516,43.069l-4.411,2.205L28.088,57.24a7.392,7.392,0,1,0,13.48,4.19,7.257,7.257,0,0,0-.081-.805l30.25-12.964A7.33,7.33,0,0,0,76.084,49.1a7.4,7.4,0,0,0,7.4-7.4,7.3,7.3,0,0,0-.922-3.5l7.78-9.752-3.855-3.077-7.579,9.5A7.333,7.333,0,0,0,68.932,43.5L39.362,56.171a7.368,7.368,0,0,0-5.19-2.138Zm0,9.861a2.465,2.465,0,1,1,2.465-2.465A2.465,2.465,0,0,1,34.172,63.895ZM76.084,39.241a2.465,2.465,0,1,1-2.465,2.465,2.465,2.465,0,0,1,2.465-2.465Z" transform="translate(47.12 34.255)"/>
      <path id="Path_551" data-name="Path 551" class="cls-9" d="M61.511,37.051l-3.486,3.486-3.488-3.486L51.05,40.537l3.489,3.486L51.05,47.509,54.536,51l3.488-3.486L61.511,51,65,47.509l-3.486-3.486L65,40.537Z" transform="translate(89.534 51.363)"/>
      <path id="Path_552" data-name="Path 552" class="cls-9" d="M39.536,27l3.489-3.486L46.511,27,50,23.509l-3.486-3.486L50,16.537l-3.486-3.486-3.486,3.486-3.489-3.486L36.05,16.537l3.489,3.486L36.05,23.509Z" transform="translate(67.554 16.194)"/>
      <path id="Path_553" data-name="Path 553" class="cls-9" d="M71.188,19.861A2.463,2.463,0,0,0,69.694,17.6L52.437,10.2A2.465,2.465,0,0,0,49,12.465v32.05h4.931V28.883l15.764-6.756a2.463,2.463,0,0,0,1.494-2.266ZM53.931,23.519V16.2l8.534,3.657Z" transform="translate(86.53 11.723)"/>
      <rect id="Rectangle_623" data-name="Rectangle 623" class="cls-9" width="4.931" height="4.931" transform="translate(162.649 144.992)"/>
      <rect id="Rectangle_624" data-name="Rectangle 624" class="cls-9" width="4.931" height="4.931" transform="translate(162.649 135.13)"/>
      <rect id="Rectangle_625" data-name="Rectangle 625" class="cls-9" width="4.931" height="4.931" transform="translate(152.788 144.992)"/>
    </g>
  </g>
</svg>
