<svg xmlns="http://www.w3.org/2000/svg" width="114.619" height="138.318" viewBox="0 0 114.619 138.318">
  <defs>
    <style>
      .cls-1 {
        fill: #08b;
      }
    </style>
  </defs>
  <g id="business-man-icon" transform="translate(-645 -1192.776)">
    <g id="Group_237" data-name="Group 237" transform="translate(645 1233.662)">
      <path id="Path_401" data-name="Path 401" class="cls-1" d="M27.648,90a4.343,4.343,0,0,0,.964-.536v15L46.934,84.537a2.114,2.114,0,0,1,2.464-.429L70.077,95.679V89.465a4.343,4.343,0,0,0,.964.536,5.118,5.118,0,0,0,6.536-2.357l9.964-19.821a5.249,5.249,0,0,0-.107-5.036l-.321-.643-3-5.571L76.827,42.965a5.649,5.649,0,0,0-1.179-1.607,4.63,4.63,0,0,0-2.357-1.286c-1.461-.313-12.4-3.916-23.893-3.9-11.048.018-22.675,3.674-24.214,4a5.108,5.108,0,0,0-2.357,1.286,6.241,6.241,0,0,0-1.179,1.607L14.363,56.679l-3,5.571-.321.643a5.9,5.9,0,0,0-.107,5.036L20.9,87.751A5.8,5.8,0,0,0,27.648,90ZM70.077,58.929l5.464,7.179L70.077,79.072Zm-41.464,0v20.25L23.148,66.215Z" transform="translate(-10.422 -36.176)"/>
    </g>
    <g id="noun_say_2043886" transform="translate(665.124 1192.776)">
      <g id="Group_1006" data-name="Group 1006" transform="translate(0 0)">
        <circle id="Ellipse_3366" data-name="Ellipse 3366" class="cls-1" cx="17.566" cy="17.566" r="17.566" transform="translate(0 1.574) rotate(-2.568)"/>
      </g>
    </g>
    <path id="Path_1956" data-name="Path 1956" class="cls-1" d="M123.871,66.6l-23.357,2.036c-.536,0-.75.643-.321,1.071l5.893,5.571L104.8,76.564l-.857.857-4.5,4.607c-1.714,1.821-3.429,3.643-5.143,5.357-1.179,1.286-2.464,2.571-3.643,3.964-2.893,3.107-5.679,6.321-8.464,9.536l-4.179,4.821c-.321.429-.75.857-1.071,1.286l-1.5-.857L52.836,93.386,49.193,91.35l-2.571,2.786-3.214,3.536L17.8,125.636l5.357,5.25L50.907,104.1h0l16.286,10.607,8.357,5.357,3,1.929.643.429,3.964-3.429c1.607-1.393,3.214-2.893,4.714-4.286,1.607-1.5,3.107-2.893,4.607-4.393q4.661-4.5,9-9c3-3,5.893-6.107,8.786-9.214l4.393-4.714.536-.643,1.5-1.714,5.571,5.25a.657.657,0,0,0,1.071-.429l1.179-22.929C124.514,66.814,124.3,66.6,123.871,66.6Z" transform="translate(635.105 1200.208)"/>
  </g>
</svg>
