<svg xmlns="http://www.w3.org/2000/svg" xmlns:xlink="http://www.w3.org/1999/xlink" width="181.944" height="171.185" viewBox="0 0 181.944 171.185">
  <defs>
    <style>
      .cls-1 {
        fill: #fff;
      }

      .cls-2, .cls-3, .cls-4 {
        fill: none;
        stroke-linecap: round;
      }

      .cls-2 {
        stroke: #ffb89b;
      }

      .cls-2, .cls-3 {
        stroke-width: 4px;
      }

      .cls-3 {
        stroke: #d3f3ff;
      }

      .cls-3, .cls-4 {
        stroke-linejoin: round;
        stroke-miterlimit: 10;
      }

      .cls-4 {
        stroke: #2d346a;
        stroke-width: 6px;
      }

      .cls-5 {
        fill: #fcbca3;
      }

      .cls-6 {
        fill: #ffb89b;
      }

      .cls-7 {
        fill: #ff8250;
      }

      .cls-8 {
        fill: #08b;
      }

      .cls-9 {
        filter: url(#Path_1276);
      }
    </style>
    <filter id="Path_1276" x="0" y="0" width="181.944" height="171.185" filterUnits="userSpaceOnUse">
      <feOffset dy="8" input="SourceAlpha"/>
      <feGaussianBlur stdDeviation="10" result="blur"/>
      <feFlood flood-color="#d8f4ff"/>
      <feComposite operator="in" in2="blur"/>
      <feComposite in="SourceGraphic"/>
    </filter>
  </defs>
  <g id="cloud-platform-icon" transform="translate(-667.999 -3616)">
    <g id="Graphic" transform="translate(686 3638)">
      <g id="stars" transform="translate(0 0)">
        <g class="cls-9" transform="matrix(1, 0, 0, 1, -18, -22)">
          <path id="Path_1276-2" data-name="Path 1276" class="cls-1" d="M126.444,64.663A60.972,60.972,0,1,0,30.9,114.876h69.156A60.894,60.894,0,0,0,126.444,64.663Z" transform="translate(25.5 18.31)"/>
        </g>
        <path id="Path_1594" data-name="Path 1594" class="cls-2" d="M0,0H78.9" transform="translate(33.642 111.144)"/>
        <line id="Line_120" data-name="Line 120" class="cls-3" x2="51.549" transform="translate(47.319 118.319)"/>
        <line id="Line_121" data-name="Line 121" class="cls-3" x2="10.361" transform="translate(63.429 125.492)"/>
        <line id="Line_122" data-name="Line 122" class="cls-3" x2="2.769" transform="translate(80.114 125.492)"/>
        <path id="Path_1281" data-name="Path 1281" class="cls-4" d="M46.2,19.072" transform="translate(58.376 14.99)"/>
        <path id="Path_1282" data-name="Path 1282" class="cls-5" d="M63.547,18.687a2.53,2.53,0,0,0-2.661-2.665H60.86a.887.887,0,0,1,.022-1.774,2.53,2.53,0,0,0,2.665-2.661.887.887,0,0,1,1.774,0,2.53,2.53,0,0,0,2.665,2.661.887.887,0,0,1,0,1.774,2.529,2.529,0,0,0-2.661,2.661v0c0,.007,0,.013,0,.013v.009a.887.887,0,0,1-1.774-.022Z" transform="translate(75.175 4.801)"/>
        <path id="Path_1283" data-name="Path 1283" class="cls-6" d="M60.274,52.043a1.265,1.265,0,0,0-1.33-1.333h-.011a.444.444,0,0,1,.009-.887,1.265,1.265,0,0,0,1.333-1.33.443.443,0,1,1,.887,0,1.265,1.265,0,0,0,1.333,1.33.443.443,0,0,1,0,.887,1.264,1.264,0,0,0-1.33,1.33v0a.022.022,0,0,1,0,.007h0v0a.444.444,0,0,1-.887-.011Z" transform="translate(75.281 55.67)"/>
        <path id="Path_1284" data-name="Path 1284" class="cls-6" d="M7.274,16.416a1.265,1.265,0,0,0-1.33-1.333H5.932a.444.444,0,0,1,.009-.887,1.265,1.265,0,0,0,1.333-1.33.443.443,0,0,1,.887,0A1.265,1.265,0,0,0,9.493,14.2a.443.443,0,0,1,0,.887,1.264,1.264,0,0,0-1.33,1.33v0a.022.022,0,0,1,0,.007h0v0a.444.444,0,0,1-.887-.011Z" transform="translate(4.203 0.715)"/>
        <path id="Path_1285" data-name="Path 1285" class="cls-7" d="M4.336,51.785a3.092,3.092,0,0,0-3.252-3.257H1.051a1.084,1.084,0,0,1,.027-2.168,3.092,3.092,0,0,0,3.257-3.252,1.084,1.084,0,1,1,2.168,0A3.092,3.092,0,0,0,9.761,46.36a1.084,1.084,0,0,1-.005,2.168A3.092,3.092,0,0,0,6.5,51.78v.005c0,.008,0,.016,0,.016v.011a1.084,1.084,0,0,1-2.168-.027Z" transform="translate(0 41.941)"/>
        <path id="Path_1286" data-name="Path 1286" class="cls-7" d="M56.647,40.743a2.53,2.53,0,0,0-2.661-2.665H53.96a.887.887,0,0,1,.022-1.774,2.53,2.53,0,0,0,2.665-2.661.887.887,0,1,1,1.774,0A2.53,2.53,0,0,0,61.086,36.3a.887.887,0,0,1,0,1.774,2.529,2.529,0,0,0-2.661,2.661v0c0,.007,0,.013,0,.013v.009a.887.887,0,0,1-1.774-.022Z" transform="translate(66.776 31.647)"/>
      </g>
    </g>
    <g id="Group_652" data-name="Group 652" transform="translate(732.037 3676.629)">
      <path id="Path_339" data-name="Path 339" class="cls-8" d="M14.426,27.865h27.98a6.526,6.526,0,0,0,1.816-12.793A7.379,7.379,0,0,0,41.581,10.7a6.573,6.573,0,0,0-4.209-1.486A8.883,8.883,0,0,0,28.87,3.6,8.748,8.748,0,0,0,20.7,9.377a7.107,7.107,0,0,0-5.447,1.073,6.648,6.648,0,0,0-2.971,4.7,6.544,6.544,0,0,0-4.292,7.1A6.34,6.34,0,0,0,14.426,27.865Z" transform="translate(-2.211 -3.597)"/>
      <path id="Path_340" data-name="Path 340" class="cls-8" d="M58.664,39.687H42.9a.74.74,0,0,0-.743.743v1.981H41.5c-.908,0-2.311-1.321-2.311-2.971V34.9H37.7v4.539C37.7,42,39.763,43.9,41.5,43.9h.66v1.981a.74.74,0,0,0,.743.743H58.664a.74.74,0,0,0,.743-.743V40.43A.74.74,0,0,0,58.664,39.687ZM46.119,43.979h0a.743.743,0,1,1,.743-.743A.8.8,0,0,1,46.119,43.979Zm2.476,0a.743.743,0,1,1,.743-.743A.8.8,0,0,1,48.595,43.979Zm4.952-.413a.743.743,0,1,1-1.486,0v-.99a.743.743,0,1,1,1.486,0Zm2.641,0a.743.743,0,0,1-1.486,0v-.99a.743.743,0,0,1,1.486,0Z" transform="translate(-7.409 -9.064)"/>
      <path id="Path_341" data-name="Path 341" class="cls-8" d="M39.725,49.757h-7.1V34.9H31.141V49.757h-7.1a.74.74,0,0,0-.743.743v5.447a.74.74,0,0,0,.743.743H39.807a.74.74,0,0,0,.743-.743V50.5A.878.878,0,0,0,39.725,49.757ZM27.179,54.048h0a.743.743,0,1,1,.743-.743C28,53.718,27.592,54.048,27.179,54.048Zm2.476,0a.743.743,0,1,1,.743-.743C30.481,53.718,30.151,54.048,29.655,54.048Zm4.952-.413a.743.743,0,1,1-1.486,0v-.99a.743.743,0,1,1,1.486,0Zm2.641,0a.743.743,0,1,1-1.486,0v-.99a.743.743,0,1,1,1.486,0Z" transform="translate(-4.894 -9.064)"/>
      <path id="Path_342" data-name="Path 342" class="cls-8" d="M24.44,40.5V34.8H22.955V40.5a2.959,2.959,0,0,1-2.971,2.971H18.25v-1.9a.74.74,0,0,0-.743-.743H1.743A.74.74,0,0,0,1,41.568v5.447a.74.74,0,0,0,.743.743H17.507a.74.74,0,0,0,.743-.743V44.952h1.733A4.387,4.387,0,0,0,24.44,40.5ZM4.962,45.117a.743.743,0,1,1,.743-.743A.74.74,0,0,1,4.962,45.117Zm2.476,0h0a.743.743,0,1,1,.743-.743A.74.74,0,0,1,7.438,45.117Zm4.952-.33a.743.743,0,0,1-1.486,0V43.8a.743.743,0,1,1,1.486,0Zm2.641,0a.743.743,0,0,1-1.486,0V43.8a.743.743,0,1,1,1.486,0Z" transform="translate(-1 -9.047)"/>
    </g>
  </g>
</svg>
