<svg xmlns="http://www.w3.org/2000/svg" xmlns:xlink="http://www.w3.org/1999/xlink" width="182.292" height="171.501" viewBox="0 0 182.292 171.501">
  <defs>
    <style>
      .cls-1 {
        fill: #fff;
      }

      .cls-2, .cls-3, .cls-4 {
        fill: none;
        stroke-linecap: round;
      }

      .cls-2 {
        stroke: #ffb89b;
      }

      .cls-2, .cls-3 {
        stroke-width: 4px;
      }

      .cls-3 {
        stroke: #d3f3ff;
      }

      .cls-3, .cls-4 {
        stroke-linejoin: round;
        stroke-miterlimit: 10;
      }

      .cls-4 {
        stroke: #2d346a;
        stroke-width: 6px;
      }

      .cls-5 {
        fill: #fcbca3;
      }

      .cls-6 {
        fill: #ffb89b;
      }

      .cls-7 {
        fill: #ff8250;
      }

      .cls-8 {
        fill: #08b;
      }

      .cls-9 {
        filter: url(#Path_1276);
      }
    </style>
    <filter id="Path_1276" x="0" y="0" width="182.292" height="171.501" filterUnits="userSpaceOnUse">
      <feOffset dy="8" input="SourceAlpha"/>
      <feGaussianBlur stdDeviation="10" result="blur"/>
      <feFlood flood-color="#d8f4ff"/>
      <feComposite operator="in" in2="blur"/>
      <feComposite in="SourceGraphic"/>
    </filter>
  </defs>
  <g id="easy-icon" transform="translate(-359.033 -3954)">
    <g id="Group_1134" data-name="Group 1134" transform="translate(377 3976)">
      <g id="Graphic" transform="translate(0 0)">
        <g id="stars" transform="translate(0 0)">
          <g class="cls-9" transform="matrix(1, 0, 0, 1, -17.97, -22)">
            <path id="Path_1276-2" data-name="Path 1276" class="cls-1" d="M126.792,64.837a61.146,61.146,0,1,0-95.821,50.355h69.353A61.068,61.068,0,0,0,126.792,64.837Z" transform="translate(25.5 18.31)"/>
          </g>
          <path id="Path_1594" data-name="Path 1594" class="cls-2" d="M0,0H79.129" transform="translate(33.737 111.461)"/>
          <line id="Line_120" data-name="Line 120" class="cls-3" x2="51.696" transform="translate(47.454 118.656)"/>
          <line id="Line_121" data-name="Line 121" class="cls-3" x2="10.39" transform="translate(63.61 125.849)"/>
          <line id="Line_122" data-name="Line 122" class="cls-3" x2="2.777" transform="translate(80.342 125.849)"/>
          <path id="Path_1281" data-name="Path 1281" class="cls-4" d="M46.2,19.072" transform="translate(58.674 15.087)"/>
          <path id="Path_1282" data-name="Path 1282" class="cls-5" d="M63.558,18.71a2.537,2.537,0,0,0-2.668-2.673h-.027a.89.89,0,0,1,.022-1.779,2.537,2.537,0,0,0,2.673-2.668.889.889,0,0,1,1.779,0,2.537,2.537,0,0,0,2.673,2.668.889.889,0,0,1,0,1.779,2.537,2.537,0,0,0-2.668,2.668v0c0,.007,0,.013,0,.013v.009a.89.89,0,0,1-1.779-.022Z" transform="translate(75.559 4.845)"/>
          <path id="Path_1283" data-name="Path 1283" class="cls-6" d="M60.279,52.054a1.269,1.269,0,0,0-1.334-1.336h-.011a.445.445,0,0,1,.009-.889,1.269,1.269,0,0,0,1.336-1.334.445.445,0,1,1,.889,0A1.269,1.269,0,0,0,62.5,49.829a.445.445,0,0,1,0,.889,1.268,1.268,0,0,0-1.334,1.334v0a.022.022,0,0,1,0,.007h0v0a.445.445,0,0,1-.889-.011Z" transform="translate(75.661 55.966)"/>
          <path id="Path_1284" data-name="Path 1284" class="cls-6" d="M7.279,16.427a1.269,1.269,0,0,0-1.334-1.336H5.934a.445.445,0,0,1,.009-.889,1.269,1.269,0,0,0,1.336-1.334.445.445,0,0,1,.889,0A1.269,1.269,0,0,0,9.5,14.2a.445.445,0,0,1,0,.889,1.268,1.268,0,0,0-1.334,1.334v0a.022.022,0,0,1,0,.007h0v0a.445.445,0,0,1-.889-.011Z" transform="translate(4.23 0.753)"/>
          <path id="Path_1285" data-name="Path 1285" class="cls-7" d="M4.348,51.813a3.1,3.1,0,0,0-3.261-3.267H1.054a1.087,1.087,0,0,1,.027-2.174,3.1,3.1,0,0,0,3.267-3.261,1.087,1.087,0,1,1,2.174,0,3.1,3.1,0,0,0,3.267,3.261,1.087,1.087,0,0,1-.005,2.174,3.1,3.1,0,0,0-3.261,3.261v.005c0,.008,0,.016,0,.016v.011a1.087,1.087,0,0,1-2.174-.027Z" transform="translate(0 42.18)"/>
          <path id="Path_1286" data-name="Path 1286" class="cls-7" d="M56.658,40.766a2.537,2.537,0,0,0-2.668-2.673h-.027a.89.89,0,0,1,.022-1.779,2.537,2.537,0,0,0,2.673-2.668.889.889,0,1,1,1.779,0,2.537,2.537,0,0,0,2.673,2.668.889.889,0,0,1,0,1.779,2.537,2.537,0,0,0-2.668,2.668v0c0,.007,0,.013,0,.013v.009a.89.89,0,0,1-1.779-.022Z" transform="translate(67.118 31.83)"/>
        </g>
      </g>
    </g>
    <g id="Group_657" data-name="Group 657" transform="translate(427.115 4011.796)">
      <g id="Group_220" data-name="Group 220" transform="translate(0)">
        <path id="Path_354" data-name="Path 354" class="cls-8" d="M27.457,55.014c2.819-1.41,3.669-2.874,3.291-5.709a4.79,4.79,0,0,0,4.263-1.383A4.542,4.542,0,0,0,36.2,43.676a14.247,14.247,0,0,0,2.368-.339A4.539,4.539,0,0,0,40.4,35.767c-1.534-1.536-3.133-3.009-4.706-4.505q-6.258-5.954-12.518-11.9c-.548-.521-1.112-1.027-1.641-1.567a3.248,3.248,0,0,1,4.484-4.7c1.993,1.834,3.942,3.715,5.909,5.577q4.3,4.077,8.609,8.155A8.722,8.722,0,0,0,43.2,28.6,3.287,3.287,0,0,0,46.94,28a8.968,8.968,0,0,0,1.442-1.734c.947-1.477,1.785-3.025,2.743-4.494a3.927,3.927,0,0,1,6.592,4.269c-1.5,2.514-3.018,5.016-4.529,7.522-.743,1.233-1.479,2.47-2.24,3.691a.848.848,0,0,0-.032.939c.7,1.419,1.368,2.858,2.06,4.283A8.93,8.93,0,0,1,48.848,54.7q-4.752,2.347-9.559,4.581a8.931,8.931,0,0,1-11.428-3.516C27.714,55.525,27.591,55.266,27.457,55.014Z" transform="translate(-14.728 -5.324)"/>
        <path id="Path_355" data-name="Path 355" class="cls-8" d="M21.268,49.416a3.123,3.123,0,0,1,1.932.877c3.311,3.11,6.628,6.215,9.917,9.348a3.369,3.369,0,0,1-4.643,4.882c-2.9-2.7-5.769-5.433-8.651-8.152-.4-.381-.821-.747-1.216-1.137a3.417,3.417,0,0,1-.78-3.769A3.5,3.5,0,0,1,21.268,49.416Z" transform="translate(-13.419 -22.662)"/>
        <path id="Path_356" data-name="Path 356" class="cls-8" d="M44.138,51.96a3.379,3.379,0,0,1-5.49,2.144c-1.549-1.37-3.023-2.826-4.527-4.247q-2.7-2.548-5.388-5.1a3.242,3.242,0,0,1-1.027-3.23,3.355,3.355,0,0,1,5.65-1.683c1.243,1.146,2.457,2.323,3.685,3.486,1.869,1.77,3.73,3.549,5.613,5.3A4.024,4.024,0,0,1,44.138,51.96Z" transform="translate(-18.249 -17.828)"/>
        <path id="Path_357" data-name="Path 357" class="cls-8" d="M13.711,62.4a3.45,3.45,0,0,1,2.406,1.1q3.344,3.18,6.695,6.353c.457.434.927.855,1.377,1.3a3.377,3.377,0,1,1-4.663,4.88c-2.623-2.475-5.23-4.967-7.863-7.431a3.584,3.584,0,0,1-1.374-3.472A3.33,3.33,0,0,1,13.711,62.4Z" transform="translate(-10.219 -28.827)"/>
        <path id="Path_358" data-name="Path 358" class="cls-8" d="M69.732,16.54a1.463,1.463,0,0,1-1.349-.8,1.28,1.28,0,0,1,.217-1.476,3.029,3.029,0,0,1,.519-.436c1.2-.881,2.395-1.764,3.6-2.631a1.369,1.369,0,0,1,2.008.2,1.349,1.349,0,0,1-.391,1.977q-1.879,1.4-3.787,2.764A4.685,4.685,0,0,1,69.732,16.54Z" transform="translate(-36.803 -4.729)"/>
        <path id="Path_359" data-name="Path 359" class="cls-8" d="M46.563,9.467a1.439,1.439,0,0,1-.825,1.4,1.341,1.341,0,0,1-1.526-.335C43.15,9.126,42.1,7.706,41.1,6.255a1.288,1.288,0,0,1,.391-1.8,1.338,1.338,0,0,1,1.828.3c1.015,1.348,2,2.717,2.982,4.091A2.508,2.508,0,0,1,46.563,9.467Z" transform="translate(-24.155 -1.837)"/>
        <path id="Path_360" data-name="Path 360" class="cls-8" d="M63.468,9.7a1.331,1.331,0,0,1-1.214-1.929c.212-.564.483-1.107.727-1.659.417-.943.816-1.894,1.254-2.827A1.331,1.331,0,0,1,65.911,2.5a1.294,1.294,0,0,1,.834,1.763c-.659,1.6-1.382,3.184-2.1,4.763A1.192,1.192,0,0,1,63.468,9.7Z" transform="translate(-33.789 -1.055)"/>
        <path id="Path_361" data-name="Path 361" class="cls-8" d="M56.314,6.051c.021.975-.442,1.565-1.207,1.638A1.37,1.37,0,0,1,53.622,6.4c-.183-1.577-.351-3.155-.488-4.736a1.915,1.915,0,0,1,.177-1.01A1.2,1.2,0,0,1,54.657.024a1.234,1.234,0,0,1,1.1,1.09c.154,1.148.27,2.3.4,3.453C56.217,5.093,56.269,5.619,56.314,6.051Z" transform="translate(-29.67 0.001)"/>
      </g>
    </g>
  </g>
</svg>
