<svg xmlns="http://www.w3.org/2000/svg" xmlns:xlink="http://www.w3.org/1999/xlink" width="376.678" height="350.804" viewBox="0 0 376.678 350.804">
  <defs>
    <style>
      .cls-1 {
        fill: #fff;
      }

      .cls-2, .cls-3, .cls-4 {
        fill: none;
        stroke-linecap: round;
      }

      .cls-2 {
        stroke: #ffb89b;
        stroke-width: 10px;
      }

      .cls-3 {
        stroke: #d3f3ff;
        stroke-width: 8px;
      }

      .cls-3, .cls-4 {
        stroke-linejoin: round;
        stroke-miterlimit: 10;
      }

      .cls-4 {
        stroke: #2d346a;
        stroke-width: 6px;
      }

      .cls-5 {
        fill: #fcbca3;
      }

      .cls-6 {
        fill: #ffb89b;
      }

      .cls-7 {
        fill: #ff8250;
      }

      .cls-8 {
        fill: #d3f3ff;
      }

      .cls-9 {
        fill: #0c8ebe;
      }

      .cls-10 {
        filter: url(#Path_1276);
      }
    </style>
    <filter id="Path_1276" x="1.055" y="0" width="375.623" height="347.774" filterUnits="userSpaceOnUse">
      <feOffset dy="8" input="SourceAlpha"/>
      <feGaussianBlur stdDeviation="10" result="blur"/>
      <feFlood flood-color="#d8f4ff"/>
      <feComposite operator="in" in2="blur"/>
      <feComposite in="SourceGraphic"/>
    </filter>
  </defs>
  <g id="Objective-Risk_Scoring" transform="translate(-5182.45 -1188)">
    <g id="stars">
      <g class="cls-10" transform="matrix(1, 0, 0, 1, 5182.45, 1188)">
        <path id="Path_1276-2" data-name="Path 1276" class="cls-1" d="M320.123,161.5A157.812,157.812,0,1,0,72.818,291.465H251.811A157.61,157.61,0,0,0,320.123,161.5Z" transform="translate(26.56 18.31)"/>
      </g>
      <path id="Path_1594" data-name="Path 1594" class="cls-2" d="M0,0H204.225" transform="translate(5269.522 1497.67)"/>
      <line id="Line_120" data-name="Line 120" class="cls-3" x2="133.422" transform="translate(5304.924 1516.24)"/>
      <line id="Line_121" data-name="Line 121" class="cls-3" x2="26.816" transform="translate(5346.621 1534.804)"/>
      <line id="Line_122" data-name="Line 122" class="cls-3" x2="7.168" transform="translate(5389.804 1534.804)"/>
      <path id="Path_1281" data-name="Path 1281" class="cls-4" d="M46.2,19.072" transform="translate(5406.918 1279.089)"/>
      <path id="Path_1282" data-name="Path 1282" class="cls-5" d="M69.182,31.371c-.011-1.153-.407-6.9-6.886-6.9h-.069a2.3,2.3,0,0,1,.057-4.591c1.153-.011,6.9-.407,6.9-6.886a2.3,2.3,0,0,1,4.591,0c0,6.479,5.744,6.875,6.9,6.886a2.3,2.3,0,0,1-.012,4.591c-6.479,0-6.875,5.75-6.886,6.886v.011c0,.017-.006.034,0,.034v.023a2.3,2.3,0,0,1-4.591-.057Z" transform="translate(5472.316 1239.423)"/>
      <path id="Path_1283" data-name="Path 1283" class="cls-6" d="M63.091,58.385a3.274,3.274,0,0,0-3.443-3.449h-.029a1.148,1.148,0,0,1,.023-2.3A3.274,3.274,0,0,0,63.091,49.2a1.148,1.148,0,1,1,2.3,0,3.274,3.274,0,0,0,3.449,3.443,1.148,1.148,0,0,1-.006,2.3,3.271,3.271,0,0,0-3.443,3.443v.006a.058.058,0,0,1-.006.017h.006v.011a1.148,1.148,0,0,1-2.3-.029Z" transform="translate(5470.208 1430.405)"/>
      <path id="Path_1284" data-name="Path 1284" class="cls-6" d="M10.091,22.758a3.274,3.274,0,0,0-3.443-3.449H6.619a1.148,1.148,0,0,1,.023-2.3,3.274,3.274,0,0,0,3.449-3.443,1.148,1.148,0,0,1,2.3,0,3.274,3.274,0,0,0,3.449,3.443,1.148,1.148,0,0,1-.006,2.3,3.272,3.272,0,0,0-3.443,3.443v.006a.058.058,0,0,1-.006.017h.006v.011a1.148,1.148,0,0,1-2.3-.029Z" transform="translate(5202.063 1231.582)"/>
      <path id="Path_1285" data-name="Path 1285" class="cls-7" d="M11.222,67.288c-.014-1.41-.5-8.431-8.417-8.431H2.721a2.806,2.806,0,0,1,.07-5.611c1.41-.014,8.431-.5,8.431-8.417a2.806,2.806,0,1,1,5.611,0c0,7.919,7.021,8.4,8.431,8.417a2.806,2.806,0,0,1-.014,5.611c-7.919,0-8.4,7.028-8.417,8.417v.014c0,.021-.007.042,0,.042v.028a2.806,2.806,0,0,1-5.611-.07Z" transform="translate(5182.45 1385.299)"/>
      <path id="Path_1286" data-name="Path 1286" class="cls-7" d="M62.282,53.427c-.011-1.153-.407-6.9-6.886-6.9h-.069a2.3,2.3,0,0,1,.057-4.591c1.153-.011,6.9-.407,6.9-6.886a2.3,2.3,0,1,1,4.591,0c0,6.479,5.744,6.875,6.9,6.886a2.3,2.3,0,0,1-.011,4.591c-6.479,0-6.875,5.75-6.886,6.886v.011c0,.017-.006.034,0,.034v.023a2.3,2.3,0,0,1-4.591-.057Z" transform="translate(5439.62 1343.937)"/>
    </g>
    <g id="goals" transform="translate(5285.449 1288.001)">
      <path id="Path_435" data-name="Path 435" class="cls-8" d="M130.373,195.456A57.736,57.736,0,1,1,169.031,94.963l2.144,1.924-15.508,15.54-1.925-1.683a35.882,35.882,0,1,0,3.631,3.633l-1.682-1.925,15.517-15.517,1.925,2.145a57.637,57.637,0,0,1-42.761,96.377Zm0,0" transform="translate(-47.579 -52.497)"/>
      <path id="Path_436" data-name="Path 436" class="cls-8" d="M416.91,29.959V18.95l11-11V18.961h11.008l-11,11Zm0,0" transform="translate(-273.631 -5.221)"/>
      <path id="Path_437" data-name="Path 437" class="cls-9" d="M154.276,27.487a2.834,2.834,0,0,0,1.952-.8l11-11a2.748,2.748,0,0,0,.577-3,2.713,2.713,0,0,0-2.529-1.7h-8.248V2.743a2.713,2.713,0,0,0-1.7-2.529,2.749,2.749,0,0,0-3,.577l-11,11a2.842,2.842,0,0,0-.8,1.952v9.871l-1.43,1.43a82.623,82.623,0,1,0,3.877,3.876l1.43-1.43Zm-8.248-12.619,5.5-5.5v4.371a2.749,2.749,0,0,0,2.749,2.749h4.371l-5.5,5.5h-7.12Zm13.747,70.355a77.088,77.088,0,1,1-24.552-56.306L123.567,40.575a60.525,60.525,0,1,0,3.877,3.876L139.1,32.794A76.753,76.753,0,0,1,159.775,85.223Zm-76.982,5.5a5.514,5.514,0,0,0,5.5-5.5,5.819,5.819,0,0,0-.192-1.4l4.124-4.152a11.148,11.148,0,1,1-3.877-3.876L84.2,79.918a5.756,5.756,0,0,0-1.4-.193,5.5,5.5,0,1,0,0,11ZM92.334,71.78a16.523,16.523,0,1,0,3.9,3.9l11.712-11.74a33.091,33.091,0,1,1-3.876-3.877ZM82.794,46.733a38.624,38.624,0,1,0,29.06,13.335l11.658-11.656a55.209,55.209,0,1,1-3.9-3.905L107.95,56.163A38.237,38.237,0,0,0,82.794,46.733Zm0,0" transform="translate(0 0)"/>
    </g>
  </g>
</svg>
