<svg xmlns="http://www.w3.org/2000/svg" xmlns:xlink="http://www.w3.org/1999/xlink" width="376.678" height="350.805" viewBox="0 0 376.678 350.805">
  <defs>
    <style>
      .cls-1 {
        fill: #fff;
      }

      .cls-2, .cls-3, .cls-4 {
        fill: none;
        stroke-linecap: round;
      }

      .cls-2 {
        stroke: #ffb89b;
        stroke-width: 10px;
      }

      .cls-3 {
        stroke: #d3f3ff;
        stroke-width: 8px;
      }

      .cls-3, .cls-4 {
        stroke-linejoin: round;
        stroke-miterlimit: 10;
      }

      .cls-4 {
        stroke: #2d346a;
        stroke-width: 6px;
      }

      .cls-5 {
        fill: #fcbca3;
      }

      .cls-6 {
        fill: #ffb89b;
      }

      .cls-7 {
        fill: #ff8250;
      }

      .cls-8 {
        fill: #d3f3ff;
      }

      .cls-9 {
        fill: #0c8ebe;
      }

      .cls-10 {
        filter: url(#Path_1276);
      }
    </style>
    <filter id="Path_1276" x="1.055" y="0" width="375.623" height="347.774" filterUnits="userSpaceOnUse">
      <feOffset dy="8" input="SourceAlpha"/>
      <feGaussianBlur stdDeviation="10" result="blur"/>
      <feFlood flood-color="#d8f4ff"/>
      <feComposite operator="in" in2="blur"/>
      <feComposite in="SourceGraphic"/>
    </filter>
  </defs>
  <g id="Opportunities" transform="translate(-268 -4474)">
    <g id="stars" transform="translate(-4914.45 3286)">
      <g class="cls-10" transform="matrix(1, 0, 0, 1, 5182.45, 1188)">
        <path id="Path_1276-2" data-name="Path 1276" class="cls-1" d="M320.123,161.5A157.812,157.812,0,1,0,72.818,291.465H251.811A157.61,157.61,0,0,0,320.123,161.5Z" transform="translate(26.56 18.31)"/>
      </g>
      <path id="Path_1594" data-name="Path 1594" class="cls-2" d="M0,0H204.225" transform="translate(5269.522 1497.67)"/>
      <line id="Line_120" data-name="Line 120" class="cls-3" x2="133.422" transform="translate(5304.924 1516.24)"/>
      <line id="Line_121" data-name="Line 121" class="cls-3" x2="26.816" transform="translate(5346.621 1534.804)"/>
      <line id="Line_122" data-name="Line 122" class="cls-3" x2="7.168" transform="translate(5389.804 1534.804)"/>
      <path id="Path_1281" data-name="Path 1281" class="cls-4" d="M46.2,19.072" transform="translate(5406.918 1279.089)"/>
      <path id="Path_1282" data-name="Path 1282" class="cls-5" d="M69.182,31.371c-.011-1.153-.407-6.9-6.886-6.9h-.069a2.3,2.3,0,0,1,.057-4.591c1.153-.011,6.9-.407,6.9-6.886a2.3,2.3,0,0,1,4.591,0c0,6.479,5.744,6.875,6.9,6.886a2.3,2.3,0,0,1-.012,4.591c-6.479,0-6.875,5.75-6.886,6.886v.011c0,.017-.006.034,0,.034v.023a2.3,2.3,0,0,1-4.591-.057Z" transform="translate(5472.316 1239.423)"/>
      <path id="Path_1283" data-name="Path 1283" class="cls-6" d="M63.091,58.385a3.274,3.274,0,0,0-3.443-3.449h-.029a1.148,1.148,0,0,1,.023-2.3A3.274,3.274,0,0,0,63.091,49.2a1.148,1.148,0,1,1,2.3,0,3.274,3.274,0,0,0,3.449,3.443,1.148,1.148,0,0,1-.006,2.3,3.271,3.271,0,0,0-3.443,3.443v.006a.058.058,0,0,1-.006.017h.006v.011a1.148,1.148,0,0,1-2.3-.029Z" transform="translate(5470.208 1430.405)"/>
      <path id="Path_1284" data-name="Path 1284" class="cls-6" d="M10.091,22.758a3.274,3.274,0,0,0-3.443-3.449H6.619a1.148,1.148,0,0,1,.023-2.3,3.274,3.274,0,0,0,3.449-3.443,1.148,1.148,0,0,1,2.3,0,3.274,3.274,0,0,0,3.449,3.443,1.148,1.148,0,0,1-.006,2.3,3.272,3.272,0,0,0-3.443,3.443v.006a.058.058,0,0,1-.006.017h.006v.011a1.148,1.148,0,0,1-2.3-.029Z" transform="translate(5202.063 1231.582)"/>
      <path id="Path_1285" data-name="Path 1285" class="cls-7" d="M11.222,67.288c-.014-1.41-.5-8.431-8.417-8.431H2.721a2.806,2.806,0,0,1,.07-5.611c1.41-.014,8.431-.5,8.431-8.417a2.806,2.806,0,1,1,5.611,0c0,7.919,7.021,8.4,8.431,8.417a2.806,2.806,0,0,1-.014,5.611c-7.919,0-8.4,7.028-8.417,8.417v.014c0,.021-.007.042,0,.042v.028a2.806,2.806,0,0,1-5.611-.07Z" transform="translate(5182.45 1385.299)"/>
      <path id="Path_1286" data-name="Path 1286" class="cls-7" d="M62.282,53.427c-.011-1.153-.407-6.9-6.886-6.9h-.069a2.3,2.3,0,0,1,.057-4.591c1.153-.011,6.9-.407,6.9-6.886a2.3,2.3,0,1,1,4.591,0c0,6.479,5.744,6.875,6.9,6.886a2.3,2.3,0,0,1-.011,4.591c-6.479,0-6.875,5.75-6.886,6.886v.011c0,.017-.006.034,0,.034v.023a2.3,2.3,0,0,1-4.591-.057Z" transform="translate(5439.62 1343.937)"/>
    </g>
    <g id="Group_354" data-name="Group 354" transform="translate(380 4584)">
      <rect id="Rectangle_629" data-name="Rectangle 629" class="cls-8" width="35" height="23" transform="translate(84 102)"/>
      <g id="Group_354-2" data-name="Group 354" transform="translate(43.493 37.213)">
        <path id="Path_559" data-name="Path 559" class="cls-9" d="M93.661,79.167H69.705V73.585a7.428,7.428,0,0,0,4.419.7,8.578,8.578,0,0,0,7.443-8.606v-40A8.338,8.338,0,0,0,73.194,17.3H28.073A8.338,8.338,0,0,0,19.7,25.673V65.91a8.578,8.578,0,0,0,7.443,8.606,9.328,9.328,0,0,0,4.419-.7V117.31a10.822,10.822,0,0,0,10.7,10.7,10.575,10.575,0,0,0,8.373-4.186,10.244,10.244,0,0,0,8.373,4.186,10.822,10.822,0,0,0,10.7-10.7v-9.3H93.894a4.665,4.665,0,0,0,4.652-4.652v-19.3A5.07,5.07,0,0,0,93.661,79.167ZM65.054,117.078a6.047,6.047,0,1,1-12.094,0h0V79.167a2.326,2.326,0,1,0-4.652,0v37.911a6.047,6.047,0,0,1-12.094,0V31.022a2.326,2.326,0,1,0-4.652,0C31.1,67.305,32.492,66.84,30.4,68.7a4.06,4.06,0,0,1-2.791.93,3.827,3.827,0,0,1-3.256-3.954v-40a3.674,3.674,0,0,1,3.721-3.721H73.194a3.674,3.674,0,0,1,3.721,3.721V65.91a3.827,3.827,0,0,1-3.256,3.954,4.06,4.06,0,0,1-2.791-.93c-2.093-1.861-.7-1.628-1.163-37.678a2.326,2.326,0,0,0-4.652,0V79.4H62.263a4.665,4.665,0,0,0-4.652,4.652v19.3a4.665,4.665,0,0,0,4.652,4.652h2.558v9.071Zm-2.791-13.955v-19.3h31.4v19.3Z" transform="translate(-19.7 -17.3)"/>
      </g>
      <g id="Group_355" data-name="Group 355" transform="translate(57.913)">
        <path id="Path_560" data-name="Path 560" class="cls-9" d="M42.413,34.327A16.513,16.513,0,1,0,25.9,17.813,16.577,16.577,0,0,0,42.413,34.327Zm0-28.375A11.862,11.862,0,1,1,30.552,17.813,11.912,11.912,0,0,1,42.413,5.952Z" transform="translate(-25.9 -1.3)"/>
      </g>
      <g id="Group_356" data-name="Group 356" transform="translate(69.775 56.285)">
        <path id="Path_561" data-name="Path 561" class="cls-9" d="M37.977,25.5H33.326a2.326,2.326,0,1,0,0,4.652h4.652A2.2,2.2,0,0,0,40.3,27.826,2.331,2.331,0,0,0,37.977,25.5Z" transform="translate(-31 -25.5)"/>
      </g>
      <g id="Group_357" data-name="Group 357" transform="translate(69.775 68.147)">
        <path id="Path_562" data-name="Path 562" class="cls-9" d="M37.977,30.6H33.326a2.326,2.326,0,1,0,0,4.652h4.652a2.326,2.326,0,1,0,0-4.652Z" transform="translate(-31 -30.6)"/>
      </g>
      <g id="Group_358" data-name="Group 358" transform="translate(116.291 17.211)">
        <path id="Path_563" data-name="Path 563" class="cls-9" d="M83.329,10.1a2.8,2.8,0,0,0-1.163-1.163,1.4,1.4,0,0,0-.93-.233H73.56a2.2,2.2,0,0,0-2.326,2.326,2.2,2.2,0,0,0,2.326,2.326h2.093L51.7,37.308a2.3,2.3,0,1,0,3.256,3.256L78.91,16.608V18.7a2.326,2.326,0,1,0,4.652,0V11.026A1.758,1.758,0,0,0,83.329,10.1Z" transform="translate(-51 -8.7)"/>
      </g>
      <g id="Group_359" data-name="Group 359" transform="translate(116.291 66.053)">
        <path id="Path_564" data-name="Path 564" class="cls-9" d="M81.236,49.935A2.2,2.2,0,0,0,78.91,52.26v2.093L54.954,30.4A2.3,2.3,0,1,0,51.7,33.654L75.654,57.61H73.56a2.326,2.326,0,1,0,0,4.652h7.675a1.4,1.4,0,0,0,.93-.233,2.235,2.235,0,0,0,1.4-2.093V52.26A2.331,2.331,0,0,0,81.236,49.935Z" transform="translate(-51 -29.7)"/>
      </g>
      <g id="Group_360" data-name="Group 360" transform="translate(0 17.211)">
        <path id="Path_565" data-name="Path 565" class="cls-9" d="M8.908,13.352H11a2.2,2.2,0,0,0,2.326-2.326A2.2,2.2,0,0,0,11,8.7H3.326A2.331,2.331,0,0,0,1,11.026V18.7a2.2,2.2,0,0,0,2.326,2.326A2.2,2.2,0,0,0,5.652,18.7V16.608L29.608,40.564a2.3,2.3,0,1,0,3.256-3.256Z" transform="translate(-1 -8.7)"/>
      </g>
      <g id="Group_361" data-name="Group 361" transform="translate(0 66.053)">
        <path id="Path_566" data-name="Path 566" class="cls-9" d="M29.608,30.4,5.652,54.354V52.26a2.2,2.2,0,0,0-2.326-2.326A2.2,2.2,0,0,0,1,52.26v7.675a2.331,2.331,0,0,0,2.326,2.326H11a2.326,2.326,0,1,0,0-4.652H8.908L32.864,33.654A2.3,2.3,0,1,0,29.608,30.4Z" transform="translate(-1 -29.7)"/>
      </g>
      <g id="Group_362" data-name="Group 362" transform="translate(97.219 109.314)">
        <path id="Path_567" data-name="Path 567" class="cls-9" d="M49.777,48.3H45.126a2.326,2.326,0,0,0,0,4.652h4.652A2.2,2.2,0,0,0,52.1,50.626,2.331,2.331,0,0,0,49.777,48.3Z" transform="translate(-42.8 -48.3)"/>
      </g>
    </g>
  </g>
</svg>
