<svg xmlns="http://www.w3.org/2000/svg" width="114.323" height="138.318" viewBox="0 0 114.323 138.318">
  <defs>
    <style>
      .cls-1 {
        fill: #08b;
      }
    </style>
  </defs>
  <g id="proactive-icon" transform="translate(-18.108 -2.448)">
    <g id="Group_1004" data-name="Group 1004" transform="translate(18.108 2.448)">
      <path id="Path_1937" data-name="Path 1937" class="cls-1" d="M62.409,28.717A13.593,13.593,0,1,0,54.7,11.109,13.586,13.586,0,0,0,62.409,28.717Z" transform="translate(8.986 -2.448)"/>
      <path id="Path_1938" data-name="Path 1938" class="cls-1" d="M34.012,75.292l10.477-11.2a3.649,3.649,0,0,0-.146-5.093l-2.91-2.619,2.619-2.91a3.623,3.623,0,0,0,.728-3.929,8,8,0,0,0,1.31-1.019l9.459-10.186a8.847,8.847,0,0,1,3.492-2.183c.437-.146,1.019-.291,1.455-.437L52.638,50.554a13.335,13.335,0,0,0-.873,9.459,12.255,12.255,0,0,0,5.821,6.839l-19.208,36.38a7.03,7.03,0,0,0,2.91,9.6,6.24,6.24,0,0,0,4.8.582,7,7,0,0,0,4.657-3.492L70.391,72.964,78.1,76.456l-1.019,21.1a6.9,6.9,0,0,0,6.694,7.276,8.3,8.3,0,0,0,1.892-.146,7.127,7.127,0,0,0,5.53-6.548l1.019-22.41a12.168,12.168,0,0,0-6.839-11.5l-8.295-3.783,7.421-13.97c.146.437.437,1.019.582,1.455a14.543,14.543,0,0,0,8,8.586l11.35,4.948a6.967,6.967,0,0,0,3.783.437,5.717,5.717,0,0,0,4.22-3.492,6.237,6.237,0,0,0-3.2-8.149l-11.5-4.948a2.146,2.146,0,0,1-1.31-1.455c-4.948-13.97-6.985-17.608-9.168-18.917l-6.985,8.586.728-6.839h.146a1.041,1.041,0,0,0,1.31-.728l.582-1.6a1.041,1.041,0,0,0-.728-1.31l-2.183-.728a1.041,1.041,0,0,0-1.31.728l-.582,1.6a1.041,1.041,0,0,0,.728,1.31h.146l-3.638,5.966-.437-11.2c-1.892-.291-5.821.146-19.208,3.783a20.741,20.741,0,0,0-9.313,5.675L37.067,40.368a3.767,3.767,0,0,0-1.019,1.6c-.146,0-.291-.146-.582-.146a3.584,3.584,0,0,0-2.765,1.31l-2.619,2.91-2.91-2.619a3.649,3.649,0,0,0-5.093.146L11.6,54.774a3.649,3.649,0,0,0,.146,5.093L28.773,75.583A3.813,3.813,0,0,0,34.012,75.292Zm1.746-29.54A6.476,6.476,0,0,0,37.5,48.808a5.588,5.588,0,0,0,3.347,1.6l.437.437-2.619,2.91-5.53-5.093Z" transform="translate(-10.637 5.837)"/>
      <path id="Path_1939" data-name="Path 1939" class="cls-1" d="M115.756,77.042l-94.878,21.1a4.42,4.42,0,0,0,1.019,8.731H116.92a4.907,4.907,0,0,0,4.948-4.948V81.844A4.979,4.979,0,0,0,115.756,77.042Z" transform="translate(-7.544 31.444)"/>
    </g>
  </g>
</svg>
