<svg xmlns="http://www.w3.org/2000/svg" xmlns:xlink="http://www.w3.org/1999/xlink" width="376.678" height="350.804" viewBox="0 0 376.678 350.804">
  <defs>
    <style>
      .cls-1 {
        fill: #fff;
      }

      .cls-2, .cls-3, .cls-4 {
        fill: none;
        stroke-linecap: round;
      }

      .cls-2 {
        stroke: #ffb89b;
        stroke-width: 10px;
      }

      .cls-3 {
        stroke: #d3f3ff;
        stroke-width: 8px;
      }

      .cls-3, .cls-4 {
        stroke-linejoin: round;
        stroke-miterlimit: 10;
      }

      .cls-4 {
        stroke: #2d346a;
        stroke-width: 6px;
      }

      .cls-5 {
        fill: #fcbca3;
      }

      .cls-6 {
        fill: #ffb89b;
      }

      .cls-7 {
        fill: #ff8250;
      }

      .cls-8 {
        fill: #d3f3ff;
      }

      .cls-9 {
        fill: #0c8ebe;
      }

      .cls-10 {
        filter: url(#Path_1276);
      }
    </style>
    <filter id="Path_1276" x="1.055" y="0" width="375.623" height="347.774" filterUnits="userSpaceOnUse">
      <feOffset dy="8" input="SourceAlpha"/>
      <feGaussianBlur stdDeviation="10" result="blur"/>
      <feFlood flood-color="#d8f4ff"/>
      <feComposite operator="in" in2="blur"/>
      <feComposite in="SourceGraphic"/>
    </filter>
  </defs>
  <g id="Real-Time-Risk-Monitoring" transform="translate(-5182.45 -1188)">
    <g class="cls-10" transform="matrix(1, 0, 0, 1, 5182.45, 1188)">
      <path id="Path_1276-2" data-name="Path 1276" class="cls-1" d="M320.123,161.5A157.812,157.812,0,1,0,72.818,291.465H251.811A157.61,157.61,0,0,0,320.123,161.5Z" transform="translate(26.56 18.31)"/>
    </g>
    <path id="Path_1594" data-name="Path 1594" class="cls-2" d="M0,0H204.225" transform="translate(5269.522 1497.67)"/>
    <line id="Line_120" data-name="Line 120" class="cls-3" x2="133.422" transform="translate(5304.924 1516.24)"/>
    <line id="Line_121" data-name="Line 121" class="cls-3" x2="26.816" transform="translate(5346.621 1534.804)"/>
    <line id="Line_122" data-name="Line 122" class="cls-3" x2="7.168" transform="translate(5389.804 1534.804)"/>
    <path id="Path_1281" data-name="Path 1281" class="cls-4" d="M46.2,19.072" transform="translate(5406.918 1279.089)"/>
    <path id="Path_1282" data-name="Path 1282" class="cls-5" d="M69.182,31.371c-.011-1.153-.407-6.9-6.886-6.9h-.069a2.3,2.3,0,0,1,.057-4.591c1.153-.011,6.9-.407,6.9-6.886a2.3,2.3,0,0,1,4.591,0c0,6.479,5.744,6.875,6.9,6.886a2.3,2.3,0,0,1-.012,4.591c-6.479,0-6.875,5.75-6.886,6.886v.011c0,.017-.006.034,0,.034v.023a2.3,2.3,0,0,1-4.591-.057Z" transform="translate(5472.316 1239.423)"/>
    <path id="Path_1283" data-name="Path 1283" class="cls-6" d="M63.091,58.385a3.274,3.274,0,0,0-3.443-3.449h-.029a1.148,1.148,0,0,1,.023-2.3A3.274,3.274,0,0,0,63.091,49.2a1.148,1.148,0,1,1,2.3,0,3.274,3.274,0,0,0,3.449,3.443,1.148,1.148,0,0,1-.006,2.3,3.271,3.271,0,0,0-3.443,3.443v.006a.058.058,0,0,1-.006.017h.006v.011a1.148,1.148,0,0,1-2.3-.029Z" transform="translate(5470.208 1430.405)"/>
    <path id="Path_1284" data-name="Path 1284" class="cls-6" d="M10.091,22.758a3.274,3.274,0,0,0-3.443-3.449H6.619a1.148,1.148,0,0,1,.023-2.3,3.274,3.274,0,0,0,3.449-3.443,1.148,1.148,0,0,1,2.3,0,3.274,3.274,0,0,0,3.449,3.443,1.148,1.148,0,0,1-.006,2.3,3.272,3.272,0,0,0-3.443,3.443v.006a.058.058,0,0,1-.006.017h.006v.011a1.148,1.148,0,0,1-2.3-.029Z" transform="translate(5202.063 1231.582)"/>
    <path id="Path_1285" data-name="Path 1285" class="cls-7" d="M11.222,67.288c-.014-1.41-.5-8.431-8.417-8.431H2.721a2.806,2.806,0,0,1,.07-5.611c1.41-.014,8.431-.5,8.431-8.417a2.806,2.806,0,1,1,5.611,0c0,7.919,7.021,8.4,8.431,8.417a2.806,2.806,0,0,1-.014,5.611c-7.919,0-8.4,7.028-8.417,8.417v.014c0,.021-.007.042,0,.042v.028a2.806,2.806,0,0,1-5.611-.07Z" transform="translate(5182.45 1385.299)"/>
    <path id="Path_1286" data-name="Path 1286" class="cls-7" d="M62.282,53.427c-.011-1.153-.407-6.9-6.886-6.9h-.069a2.3,2.3,0,0,1,.057-4.591c1.153-.011,6.9-.407,6.9-6.886a2.3,2.3,0,1,1,4.591,0c0,6.479,5.744,6.875,6.9,6.886a2.3,2.3,0,0,1-.011,4.591c-6.479,0-6.875,5.75-6.886,6.886v.011c0,.017-.006.034,0,.034v.023a2.3,2.3,0,0,1-4.591-.057Z" transform="translate(5439.62 1343.937)"/>
    <g id="noun_Real_Time_Data_51033" data-name="noun_Real Time Data_51033" transform="translate(5250.891 1266.263)">
      <g id="Group_325" data-name="Group 325" transform="translate(0 0)">
        <circle id="Ellipse_113" data-name="Ellipse 113" class="cls-8" cx="44.997" cy="44.997" r="44.997" transform="translate(75.726 38.412)"/>
        <path id="Path_511" data-name="Path 511" class="cls-9" d="M139.36,79.5v.314c0,1.956-.619,4.558-2.577,4.558H104.764c-1.956,0-1.946-2.6-1.946-4.558V79.5H.5v5.632c0,3.435,3.959,6.548,7.394,6.548H233.656c3.435,0,8.022-3.111,8.022-6.548V79.5Z" transform="translate(-0.5 83.407)"/>
        <path id="Path_512" data-name="Path 512" class="cls-9" d="M17.451,146H192.4c3.437,0,6.677-2.643,6.677-6.076V37.632c0-3.437-3.24-6.132-6.677-6.132H152.782a64.57,64.57,0,0,1,6.251,7.308h30.306v97.446H18.808V38.808h34.42A64.22,64.22,0,0,1,59.453,31.5h-42A5.919,5.919,0,0,0,11.5,37.632V139.923A5.874,5.874,0,0,0,17.451,146Z" transform="translate(15.298 14.472)"/>
        <path id="Path_513" data-name="Path 513" class="cls-9" d="M28.971,96.1a52.462,52.462,0,1,0,84.515-41.57l3.428-4.448,1.7,1.34,2.451-3.155-6.314-4.911-2.46,3.152,2,1.564-3.584,4.521A53.11,53.11,0,0,0,83.855,43.5V40.949c7.308-1.518,11.063-7.179,11.063-13.954A14.34,14.34,0,0,0,80.583,12.629c-7.935,0-13.772,6.434-13.772,14.366,0,6.98,4.863,12.79,12.171,14.091v2.439C47.313,45.2,28.971,68.093,28.971,96.1Zm40.279-69.1a11.7,11.7,0,1,1,23.389,0,12.228,12.228,0,0,1-8.785,11.452V29.368h4.872V22.059H74.11v7.308h4.872V38.6C71.674,37.336,69.25,32.627,69.25,26.995ZM81.07,52.309A43.786,43.786,0,1,1,37.283,96.1,43.786,43.786,0,0,1,81.07,52.309Z" transform="translate(40.388 -12.629)"/>
        <path id="Path_514" data-name="Path 514" class="cls-9" d="M51.936,30.818a17.934,17.934,0,0,0-2.436,0v6.592h2.436Z" transform="translate(69.871 13.434)"/>
        <path id="Path_515" data-name="Path 515" class="cls-9" d="M49.5,66.556a10.261,10.261,0,0,0,1.218.041,10.292,10.292,0,0,0,1.218-.041V60.5H49.5Z" transform="translate(69.871 56.121)"/>
        <path id="Path_516" data-name="Path 516" class="cls-9" d="M64.5,48.936h4.244a10.009,10.009,0,0,0,.044-1.218,10.013,10.013,0,0,0-.044-1.218H64.5Z" transform="translate(91.413 36.015)"/>
        <path id="Path_517" data-name="Path 517" class="cls-9" d="M40.043,46.5H34.074a10.876,10.876,0,0,0-.041,1.218,10.876,10.876,0,0,0,.041,1.218h5.969Z" transform="translate(47.658 36.015)"/>
        <path id="Path_518" data-name="Path 518" class="cls-9" d="M47.706,38.464,44.33,32.617q-1.443.756-2.809,1.627L44.9,40.086Z" transform="translate(58.412 16.077)"/>
        <path id="Path_519" data-name="Path 519" class="cls-9" d="M56.232,59.721l3.376,5.847c.96-.5,1.9-1.048,2.809-1.625L59.043,58.1Z" transform="translate(79.539 52.672)"/>
        <path id="Path_520" data-name="Path 520" class="cls-9" d="M62.979,44.45l5.847-3.377c-.5-.96-1.05-1.9-1.627-2.809l-5.844,3.374Z" transform="translate(86.895 24.188)"/>
        <path id="Path_521" data-name="Path 521" class="cls-9" d="M35.871,56.352q.76,1.443,1.627,2.811l5.844-3.377-1.625-2.811Z" transform="translate(50.298 45.315)"/>
        <path id="Path_522" data-name="Path 522" class="cls-9" d="M35.871,41.074,41.72,44.45l1.625-2.811L37.5,38.265Q36.627,39.635,35.871,41.074Z" transform="translate(50.298 24.188)"/>
        <path id="Path_523" data-name="Path 523" class="cls-9" d="M61.354,55.788,67.2,59.165c.577-.914,1.123-1.851,1.627-2.811l-5.847-3.377Z" transform="translate(86.895 45.316)"/>
        <path id="Path_524" data-name="Path 524" class="cls-9" d="M62.419,34.243c-.911-.58-1.851-1.123-2.809-1.627l-3.379,5.849,2.814,1.622Z" transform="translate(79.538 16.075)"/>
        <path id="Path_525" data-name="Path 525" class="cls-9" d="M47.706,59.724,44.9,58.1l-3.374,5.844c.914.577,1.849,1.123,2.811,1.625Z" transform="translate(58.412 52.672)"/>
        <path id="Path_526" data-name="Path 526" class="cls-9" d="M52.311,65.13a3.368,3.368,0,0,0,1.71.465,3.411,3.411,0,0,0,3.413-3.408,3.366,3.366,0,0,0-.151-.984c10.622-8.7,29.2-24.449,28.8-24.949s-19.628,14.4-30.347,22.985a3.408,3.408,0,0,0-5.123,2.948,3.368,3.368,0,0,0,.2,1.145c-2.336,2.132-3.649,3.778-3.313,4.193S49.77,66.95,52.311,65.13Z" transform="translate(66.923 21.283)"/>
      </g>
    </g>
  </g>
</svg>
