<svg xmlns="http://www.w3.org/2000/svg" xmlns:xlink="http://www.w3.org/1999/xlink" width="182.291" height="171.501" viewBox="0 0 182.291 171.501">
  <defs>
    <style>
      .cls-1 {
        fill: #fff;
      }

      .cls-2, .cls-3, .cls-4 {
        fill: none;
        stroke-linecap: round;
      }

      .cls-2 {
        stroke: #ffb89b;
      }

      .cls-2, .cls-3 {
        stroke-width: 4px;
      }

      .cls-3 {
        stroke: #d3f3ff;
      }

      .cls-3, .cls-4 {
        stroke-linejoin: round;
        stroke-miterlimit: 10;
      }

      .cls-4 {
        stroke: #2d346a;
        stroke-width: 6px;
      }

      .cls-5 {
        fill: #fcbca3;
      }

      .cls-6 {
        fill: #ffb89b;
      }

      .cls-7 {
        fill: #ff8250;
      }

      .cls-8 {
        fill: #08b;
      }

      .cls-9 {
        filter: url(#Path_1276);
      }
    </style>
    <filter id="Path_1276" x="0" y="0" width="182.291" height="171.501" filterUnits="userSpaceOnUse">
      <feOffset dy="8" input="SourceAlpha"/>
      <feGaussianBlur stdDeviation="10" result="blur"/>
      <feFlood flood-color="#d8f4ff"/>
      <feComposite operator="in" in2="blur"/>
      <feComposite in="SourceGraphic"/>
    </filter>
  </defs>
  <g id="real-time-alers-icon" transform="translate(-1025.033 -3954)">
    <g id="Group_1134" data-name="Group 1134" transform="translate(1043 3976)">
      <g id="Graphic" transform="translate(0 0)">
        <g id="stars" transform="translate(0 0)">
          <g class="cls-9" transform="matrix(1, 0, 0, 1, -17.97, -22)">
            <path id="Path_1276-2" data-name="Path 1276" class="cls-1" d="M126.791,64.837a61.146,61.146,0,1,0-95.821,50.355h69.353A61.067,61.067,0,0,0,126.791,64.837Z" transform="translate(25.5 18.31)"/>
          </g>
          <path id="Path_1594" data-name="Path 1594" class="cls-2" d="M0,0H79.129" transform="translate(33.737 111.461)"/>
          <line id="Line_120" data-name="Line 120" class="cls-3" x2="51.696" transform="translate(47.454 118.656)"/>
          <line id="Line_121" data-name="Line 121" class="cls-3" x2="10.39" transform="translate(63.61 125.849)"/>
          <line id="Line_122" data-name="Line 122" class="cls-3" x2="2.777" transform="translate(80.341 125.849)"/>
          <path id="Path_1281" data-name="Path 1281" class="cls-4" d="M46.2,19.072" transform="translate(58.674 15.087)"/>
          <path id="Path_1282" data-name="Path 1282" class="cls-5" d="M63.558,18.71a2.537,2.537,0,0,0-2.668-2.673h-.027a.89.89,0,0,1,.022-1.779,2.537,2.537,0,0,0,2.673-2.668.889.889,0,0,1,1.779,0,2.537,2.537,0,0,0,2.673,2.668.889.889,0,0,1,0,1.779,2.537,2.537,0,0,0-2.668,2.668v0c0,.007,0,.013,0,.013v.009a.89.89,0,0,1-1.779-.022Z" transform="translate(75.559 4.845)"/>
          <path id="Path_1283" data-name="Path 1283" class="cls-6" d="M60.279,52.054a1.269,1.269,0,0,0-1.334-1.336h-.011a.445.445,0,0,1,.009-.889,1.269,1.269,0,0,0,1.336-1.334.445.445,0,1,1,.889,0A1.269,1.269,0,0,0,62.5,49.829a.445.445,0,0,1,0,.889,1.268,1.268,0,0,0-1.334,1.334v0a.023.023,0,0,1,0,.007h0v0a.445.445,0,0,1-.889-.011Z" transform="translate(75.661 55.965)"/>
          <path id="Path_1284" data-name="Path 1284" class="cls-6" d="M7.279,16.427a1.269,1.269,0,0,0-1.334-1.336H5.934a.445.445,0,0,1,.009-.889,1.269,1.269,0,0,0,1.336-1.334.445.445,0,1,1,.889,0A1.269,1.269,0,0,0,9.5,14.2a.445.445,0,0,1,0,.889,1.268,1.268,0,0,0-1.334,1.334v0a.022.022,0,0,1,0,.007h0v0a.445.445,0,0,1-.889-.011Z" transform="translate(4.23 0.753)"/>
          <path id="Path_1285" data-name="Path 1285" class="cls-7" d="M4.348,51.813a3.1,3.1,0,0,0-3.261-3.267H1.054a1.087,1.087,0,0,1,.027-2.174,3.1,3.1,0,0,0,3.267-3.261,1.087,1.087,0,1,1,2.174,0,3.1,3.1,0,0,0,3.267,3.261,1.087,1.087,0,0,1-.005,2.174,3.1,3.1,0,0,0-3.261,3.261v.005c0,.008,0,.016,0,.016v.011a1.087,1.087,0,0,1-2.174-.027Z" transform="translate(0 42.18)"/>
          <path id="Path_1286" data-name="Path 1286" class="cls-7" d="M56.658,40.766a2.537,2.537,0,0,0-2.668-2.673h-.027a.89.89,0,0,1,.022-1.779,2.537,2.537,0,0,0,2.673-2.668.889.889,0,1,1,1.779,0,2.537,2.537,0,0,0,2.673,2.668.889.889,0,0,1,0,1.779,2.537,2.537,0,0,0-2.668,2.668v0c0,.007,0,.013,0,.013v.009a.89.89,0,0,1-1.779-.022Z" transform="translate(67.117 31.83)"/>
        </g>
      </g>
    </g>
    <g id="noun_Location_Marketing_1109815" data-name="noun_Location Marketing_1109815" transform="translate(1089.137 4011.001)">
      <path id="Path_1958" data-name="Path 1958" class="cls-8" d="M62.722,9.274H61.287a.287.287,0,1,1,0-.574h1.435a.271.271,0,0,1,.287.287A.308.308,0,0,1,62.722,9.274Z" transform="translate(-28.619 -4.486)"/>
      <path id="Path_1959" data-name="Path 1959" class="cls-8" d="M60.266,5.744a.435.435,0,0,1-.23-.115.349.349,0,0,1,0-.459L61.07,4.136c.057-.115.287-.115.4,0a.349.349,0,0,1,0,.459L60.438,5.629C60.438,5.686,60.381,5.744,60.266,5.744Z" transform="translate(-28.171 -2.506)"/>
      <path id="Path_1960" data-name="Path 1960" class="cls-8" d="M61.2,13.144a.435.435,0,0,1-.23-.115L59.936,12a.325.325,0,0,1,.459-.459l1.033,1.033a.349.349,0,0,1,0,.459C61.429,13.144,61.314,13.144,61.2,13.144Z" transform="translate(-28.129 -5.657)"/>
      <path id="Path_1961" data-name="Path 1961" class="cls-8" d="M48.714,4.656V1.67a.293.293,0,0,0-.23-.287.276.276,0,0,0-.344.115,7.784,7.784,0,0,1-5.741,2.3H38.782a1.307,1.307,0,0,0-1.091.574H37a.392.392,0,0,0-.4.4v2.3a.392.392,0,0,0,.4.4h.632a1.748,1.748,0,0,0,.746.517l1.895,4.995a.5.5,0,0,0,.459.344h1.837a.585.585,0,0,0,.459-.287.539.539,0,0,0-.057-.517L42,11.431,40.734,8.1H42.4a7.784,7.784,0,0,1,5.741,2.3.435.435,0,0,0,.23.115h.115a.381.381,0,0,0,.23-.287V7.239a1.246,1.246,0,0,0,.976-1.263A1.312,1.312,0,0,0,48.714,4.656Z" transform="translate(-18.228 -1.361)"/>
      <path id="Path_1962" data-name="Path 1962" class="cls-8" d="M8.389,43.424A24.478,24.478,0,0,1,6.9,35.214,23.8,23.8,0,0,1,20.733,13.626V11.1A26.052,26.052,0,0,0,4.6,35.156a25.039,25.039,0,0,0,2.009,9.99Z" transform="translate(-4.6 -5.508)"/>
      <g id="Group_1141" data-name="Group 1141" transform="translate(15.617 5.362)">
        <path id="Path_1963" data-name="Path 1963" class="cls-8" d="M80.781,34.986a24.86,24.86,0,0,1-1.206,7.521l1.837,1.837a25.549,25.549,0,0,0,1.722-9.358A26.119,26.119,0,0,0,66.6,10.7v2.526A23.855,23.855,0,0,1,80.781,34.986Z" transform="translate(-46.62 -10.7)"/>
        <path id="Path_1964" data-name="Path 1964" class="cls-8" d="M51.55,91.2a23.823,23.823,0,0,1-9.3,1.895,24.217,24.217,0,0,1-8.669-1.608l-1.78,1.78a26.314,26.314,0,0,0,10.392,2.182A25.235,25.235,0,0,0,53.215,92.98Z" transform="translate(-31.8 -44.982)"/>
      </g>
      <path id="Path_1965" data-name="Path 1965" class="cls-8" d="M83.854,74.731a6.476,6.476,0,1,0-12.516,3.33,6.3,6.3,0,0,0,2.756,3.789l-1.722,2.584,6.832-1.78A6.436,6.436,0,0,0,83.854,74.731Zm-5.8,4.076H74.611V77.774h3.445Zm2.928-2.067H74.611V75.707h6.43v1.033Zm0-1.952H74.611V73.755h6.43v1.033Z" transform="translate(-32.928 -30.558)"/>
      <rect id="Rectangle_481" data-name="Rectangle 481" class="cls-8" width="2.297" height="6.258" transform="translate(1.722 44.403)"/>
      <path id="Path_1966" data-name="Path 1966" class="cls-8" d="M13.6,75.747,16.987,71.9l1.435.287L17.389,75.46h5.052l-1.378,6.6H13.6" transform="translate(-8.433 -31.401)"/>
      <path id="Path_1967" data-name="Path 1967" class="cls-8" d="M52.983,42.233a10.022,10.022,0,0,0-9.99-9.933h-.115a10.022,10.022,0,0,0-9.99,9.933c-.057.919-.4,7.808,9.3,15.272a1.255,1.255,0,0,0,.287.172c-1.608,0-2.871.172-2.871.344a9.19,9.19,0,0,0,3.387.344c1.895,0,3.387-.172,3.387-.344s-1.263-.287-2.928-.344c.115-.057.172-.115.287-.172C53.443,50.041,53.1,43.151,52.983,42.233Zm-15.329.23a5.282,5.282,0,1,1,5.282,5.282A5.343,5.343,0,0,1,37.654,42.462Z" transform="translate(-16.64 -14.537)"/>
    </g>
  </g>
</svg>
