<svg xmlns="http://www.w3.org/2000/svg" xmlns:xlink="http://www.w3.org/1999/xlink" width="376.678" height="350.804" viewBox="0 0 376.678 350.804">
  <defs>
    <style>
      .cls-1 {
        fill: #fff;
      }

      .cls-2, .cls-3, .cls-4 {
        fill: none;
        stroke-linecap: round;
      }

      .cls-2 {
        stroke: #ffb89b;
        stroke-width: 10px;
      }

      .cls-3 {
        stroke: #d3f3ff;
        stroke-width: 8px;
      }

      .cls-3, .cls-4 {
        stroke-linejoin: round;
        stroke-miterlimit: 10;
      }

      .cls-4 {
        stroke: #2d346a;
        stroke-width: 6px;
      }

      .cls-5 {
        fill: #fcbca3;
      }

      .cls-6 {
        fill: #ffb89b;
      }

      .cls-7 {
        fill: #ff8250;
      }

      .cls-8 {
        fill: #0c8ebe;
      }

      .cls-9 {
        filter: url(#Path_1276);
      }
    </style>
    <filter id="Path_1276" x="1.055" y="0" width="375.623" height="347.774" filterUnits="userSpaceOnUse">
      <feOffset dy="8" input="SourceAlpha"/>
      <feGaussianBlur stdDeviation="10" result="blur"/>
      <feFlood flood-color="#d8f4ff"/>
      <feComposite operator="in" in2="blur"/>
      <feComposite in="SourceGraphic"/>
    </filter>
  </defs>
  <g id="Simple-Subsription-Pricing" transform="translate(-925 -3875)">
    <g id="stars" transform="translate(-4257.45 2687)">
      <g class="cls-9" transform="matrix(1, 0, 0, 1, 5182.45, 1188)">
        <path id="Path_1276-2" data-name="Path 1276" class="cls-1" d="M320.123,161.5A157.812,157.812,0,1,0,72.818,291.465H251.811A157.61,157.61,0,0,0,320.123,161.5Z" transform="translate(26.56 18.31)"/>
      </g>
      <path id="Path_1594" data-name="Path 1594" class="cls-2" d="M0,0H204.225" transform="translate(5269.522 1497.67)"/>
      <line id="Line_120" data-name="Line 120" class="cls-3" x2="133.422" transform="translate(5304.924 1516.24)"/>
      <line id="Line_121" data-name="Line 121" class="cls-3" x2="26.816" transform="translate(5346.621 1534.804)"/>
      <line id="Line_122" data-name="Line 122" class="cls-3" x2="7.168" transform="translate(5389.804 1534.804)"/>
      <path id="Path_1281" data-name="Path 1281" class="cls-4" d="M46.2,19.072" transform="translate(5406.918 1279.089)"/>
      <path id="Path_1282" data-name="Path 1282" class="cls-5" d="M69.182,31.371c-.011-1.153-.407-6.9-6.886-6.9h-.069a2.3,2.3,0,0,1,.057-4.591c1.153-.011,6.9-.407,6.9-6.886a2.3,2.3,0,0,1,4.591,0c0,6.479,5.744,6.875,6.9,6.886a2.3,2.3,0,0,1-.012,4.591c-6.479,0-6.875,5.75-6.886,6.886v.011c0,.017-.006.034,0,.034v.023a2.3,2.3,0,0,1-4.591-.057Z" transform="translate(5472.316 1239.423)"/>
      <path id="Path_1283" data-name="Path 1283" class="cls-6" d="M63.091,58.385a3.274,3.274,0,0,0-3.443-3.449h-.029a1.148,1.148,0,0,1,.023-2.3A3.274,3.274,0,0,0,63.091,49.2a1.148,1.148,0,1,1,2.3,0,3.274,3.274,0,0,0,3.449,3.443,1.148,1.148,0,0,1-.006,2.3,3.271,3.271,0,0,0-3.443,3.443v.006a.058.058,0,0,1-.006.017h.006v.011a1.148,1.148,0,0,1-2.3-.029Z" transform="translate(5470.208 1430.405)"/>
      <path id="Path_1284" data-name="Path 1284" class="cls-6" d="M10.091,22.758a3.274,3.274,0,0,0-3.443-3.449H6.619a1.148,1.148,0,0,1,.023-2.3,3.274,3.274,0,0,0,3.449-3.443,1.148,1.148,0,0,1,2.3,0,3.274,3.274,0,0,0,3.449,3.443,1.148,1.148,0,0,1-.006,2.3,3.272,3.272,0,0,0-3.443,3.443v.006a.058.058,0,0,1-.006.017h.006v.011a1.148,1.148,0,0,1-2.3-.029Z" transform="translate(5202.063 1231.582)"/>
      <path id="Path_1285" data-name="Path 1285" class="cls-7" d="M11.222,67.288c-.014-1.41-.5-8.431-8.417-8.431H2.721a2.806,2.806,0,0,1,.07-5.611c1.41-.014,8.431-.5,8.431-8.417a2.806,2.806,0,1,1,5.611,0c0,7.919,7.021,8.4,8.431,8.417a2.806,2.806,0,0,1-.014,5.611c-7.919,0-8.4,7.028-8.417,8.417v.014c0,.021-.007.042,0,.042v.028a2.806,2.806,0,0,1-5.611-.07Z" transform="translate(5182.45 1385.299)"/>
      <path id="Path_1286" data-name="Path 1286" class="cls-7" d="M62.282,53.427c-.011-1.153-.407-6.9-6.886-6.9h-.069a2.3,2.3,0,0,1,.057-4.591c1.153-.011,6.9-.407,6.9-6.886a2.3,2.3,0,1,1,4.591,0c0,6.479,5.744,6.875,6.9,6.886a2.3,2.3,0,0,1-.011,4.591c-6.479,0-6.875,5.75-6.886,6.886v.011c0,.017-.006.034,0,.034v.023a2.3,2.3,0,0,1-4.591-.057Z" transform="translate(5439.62 1343.937)"/>
    </g>
    <g id="icon" transform="translate(3121.517 360.392) rotate(45)">
      <g id="noun_price_1066447" transform="translate(1769.392 3663.175)">
        <g id="Group_352" data-name="Group 352" transform="translate(-618.391 294.825)">
          <g id="Group_349" data-name="Group 349" transform="translate(0 30.786)">
            <path id="Path_556" data-name="Path 556" class="cls-8" d="M85.932,139.111H18.161A6.252,6.252,0,0,1,12,132.642V48.4a7.27,7.27,0,0,1,2.156-4.929L48.042,13.592a5.767,5.767,0,0,1,8.009,0L89.937,43.473A7.269,7.269,0,0,1,92.093,48.4v84.24A6.252,6.252,0,0,1,85.932,139.111ZM52.047,18.213,18.161,48.094v84.548l67.771.308V48.4Z" transform="translate(-12 -11.975)"/>
          </g>
          <g id="Group_350" data-name="Group 350" transform="translate(27.725 49.346)">
            <path id="Path_557" data-name="Path 557" class="cls-8" d="M33.322,42.644A12.322,12.322,0,1,1,45.644,30.322,12.358,12.358,0,0,1,33.322,42.644Zm0-18.483a6.161,6.161,0,1,0,6.161,6.161A6.179,6.179,0,0,0,33.322,24.161Z" transform="translate(-21 -18)"/>
          </g>
          <g id="Group_351" data-name="Group 351" transform="translate(36.919)">
            <path id="Path_558" data-name="Path 558" class="cls-8" d="M27.728,63.649H26.8a2.783,2.783,0,0,1-2.772-3.389,2.941,2.941,0,0,1,3.389-2.772h0c.616,0,16.327.616,28.341-14.17,1.848-2.156,1.54-8.009,1.54-13.554C56.993,19.29,56.685,5.12,69.931,2.039a3.118,3.118,0,0,1,3.7,2.464,3.183,3.183,0,0,1-2.772,3.7c-7.7,1.848-8.009,9.55-7.7,21.564.308,7.085.308,13.554-2.772,17.559A42.189,42.189,0,0,1,27.728,63.649Z" transform="translate(-23.985 -1.981)"/>
          </g>
        </g>
      </g>
      <rect id="Rectangle_626" data-name="Rectangle 626" class="cls-8" width="6" height="40" rx="3" transform="translate(1176 4047)"/>
      <rect id="Rectangle_627" data-name="Rectangle 627" class="cls-8" width="6" height="40" rx="3" transform="translate(1200 4047)"/>
    </g>
  </g>
</svg>
