<svg xmlns="http://www.w3.org/2000/svg" width="125.051" height="124.972" viewBox="0 0 125.051 124.972">
  <defs>
    <style>
      .cls-1 {
        fill: #08b;
        fill-rule: evenodd;
      }
    </style>
  </defs>
  <g id="strength-icon" transform="translate(-25.846 -5.826)">
    <g id="Group_1008" data-name="Group 1008" transform="translate(25.846 5.826)">
      <path id="Path_1957" data-name="Path 1957" class="cls-1" d="M49.074,958.2a2.829,2.829,0,0,0-1.591.84c-5.889,6.009-9.26,12.9-9.371,20.025s3.09,14.2,9.416,20.378a2.829,2.829,0,0,0,2.3.8l15.869-1.768a2.823,2.823,0,0,0,1.194-.442l7.426-4.818c4.531,13.921,9.369,30.231,15.6,43.276-4.465-2.355-8.378-3.982-12.333-4.6-5.449-.848-10.688.578-16.577,4.332-5.92-10.773-14.464-16.446-23.649-17.947-9.993-1.632-20.51,1.367-29.926,6.5a2.829,2.829,0,0,0-1.459,2.475L5.8,1069.641a2.83,2.83,0,0,0,.928,2.122c12.684,11.157,28.209,10.844,43.851,5.3,27.775,10.67,54.211,7.37,77.976-10.256a2.829,2.829,0,0,0,1.061-1.68c4.145-18.906-2.349-44.682-16.444-66.4s-36.12-39.4-63.522-40.535a2.844,2.844,0,0,0-.575,0Zm-18.256,72.8c4.189-.042,8.335,1.094,13.792,3.581a2.839,2.839,0,0,1-2.343,5.172c-9.214-4.2-11.522-4.281-20.025-1.194a2.846,2.846,0,1,1-1.945-5.349A31.37,31.37,0,0,1,30.818,1031.007Z" transform="translate(-5.798 -958.188)"/>
    </g>
  </g>
</svg>
