<svg id="third-party-icon" xmlns="http://www.w3.org/2000/svg" width="133.705" height="138.318" viewBox="0 0 133.705 138.318">
  <defs>
    <style>
      .cls-1 {
        fill: #08b;
      }
    </style>
  </defs>
  <path id="Path_1928" data-name="Path 1928" class="cls-1" d="M48.6,25.3l.046.028c.277.151.561.287.851.415.074.032.149.06.221.091.224.092.455.177.687.254.081.028.161.055.243.08.294.089.595.169.9.234.061.012.12.022.18.032.258.051.519.091.781.121.091.011.181.02.272.029.32.029.644.051.971.051s.652-.022.97-.051c.092-.008.183-.017.274-.029.263-.031.523-.071.781-.121.06-.011.12-.02.178-.032.3-.065.606-.144.9-.234.081-.025.161-.054.243-.08q.35-.115.687-.254c.072-.031.148-.058.22-.091.29-.128.576-.263.853-.415.018-.009.032-.018.048-.028a10.736,10.736,0,1,0-10.3,0Z" transform="translate(13.102 -5)"/>
  <path id="Path_1929" data-name="Path 1929" class="cls-1" d="M78.659,39.04c-.085-4.572-1.635-15.172-13.862-18.127-.4.221-.818.416-1.24.6-.08.035-.16.071-.24.1-.413.171-.83.327-1.251.46-.066.022-.135.038-.2.06-.381.115-.768.214-1.157.3-.092.02-.18.043-.272.061-.435.088-.871.154-1.312.2-.1.011-.2.018-.3.028-.466.043-.933.071-1.4.071s-.939-.029-1.406-.071c-.1-.009-.2-.017-.3-.028-.441-.049-.881-.115-1.314-.2-.092-.018-.18-.04-.27-.06-.39-.086-.779-.184-1.162-.3-.065-.02-.131-.037-.2-.058-.423-.134-.842-.289-1.253-.461-.08-.034-.16-.068-.238-.1-.421-.183-.836-.38-1.242-.6C37.815,23.87,36.265,34.47,36.18,39.04Z" transform="translate(9.433 3.543)"/>
  <path id="Path_1930" data-name="Path 1930" class="cls-1" d="M48.98,85.867C48.9,81.3,47.345,70.7,35.117,67.741c-.4.22-.819.416-1.239.6-.081.035-.161.071-.244.1-.412.169-.827.326-1.249.46-.066.022-.134.037-.2.058-.381.115-.768.215-1.157.3-.092.02-.18.041-.272.06-.435.088-.871.154-1.314.2-.1.012-.2.02-.3.029-.466.041-.933.071-1.4.071s-.939-.029-1.406-.071c-.1-.009-.2-.017-.3-.029-.443-.049-.881-.115-1.314-.2-.091-.018-.18-.04-.27-.06q-.588-.129-1.162-.3c-.066-.02-.132-.035-.2-.057-.424-.134-.842-.29-1.253-.461-.081-.034-.16-.068-.24-.1-.42-.183-.836-.38-1.24-.6C8.136,70.7,6.586,81.3,6.5,85.867Z" transform="translate(-6.501 28.683)"/>
  <path id="Path_1931" data-name="Path 1931" class="cls-1" d="M18.919,72.122c.015.009.032.02.048.028.277.152.561.289.851.415.074.032.148.06.221.091.224.092.455.177.687.254.081.028.161.055.243.08.294.091.595.168.9.232.06.012.12.022.18.032.258.049.516.091.781.12.091.011.181.022.274.029.318.029.641.049.97.049s.65-.022.971-.049c.091-.008.181-.018.272-.029.261-.031.523-.071.781-.12.06-.012.12-.02.18-.032.3-.065.6-.143.9-.232.081-.025.161-.052.243-.08.231-.077.463-.161.687-.254.074-.031.148-.058.22-.091.29-.126.576-.263.853-.415a.483.483,0,0,0,.048-.028,10.734,10.734,0,1,0-10.3,0Z" transform="translate(-2.831 20.14)"/>
  <path id="Path_1932" data-name="Path 1932" class="cls-1" d="M78.277,72.122c.017.009.032.02.048.028.277.152.561.289.851.415.074.032.149.06.221.091.224.092.456.177.687.254.081.028.161.055.243.08.294.091.595.168.9.232.06.012.12.022.18.032.258.049.519.091.781.12.092.011.181.022.272.029.321.029.644.049.971.049s.652-.022.971-.049c.092-.008.181-.018.272-.029.263-.031.523-.071.781-.12.06-.012.12-.02.18-.032.3-.065.6-.143.9-.232.083-.025.161-.052.243-.08.232-.077.463-.161.688-.254.072-.031.146-.058.22-.091.289-.126.575-.263.851-.415a.351.351,0,0,0,.048-.028,10.732,10.732,0,1,0-10.3,0Z" transform="translate(29.037 20.14)"/>
  <path id="Path_1933" data-name="Path 1933" class="cls-1" d="M94.477,67.741c-.4.218-.815.415-1.233.6,0,0,0,0,0,0l-.008,0-.235.1h0c-.41.171-.825.326-1.249.46-.065.02-.129.035-.192.055l-.009,0-.009,0q-.567.171-1.15.3c-.091.02-.178.042-.27.06-.435.088-.871.154-1.312.2-.1.011-.2.02-.292.028H88.5c-.466.042-.93.071-1.4.071s-.936-.029-1.4-.071h-.008c-.1-.008-.2-.017-.292-.028q-.662-.069-1.314-.2h0c-.089-.018-.177-.038-.264-.058,0,0,0,0-.006,0s0,0-.006,0c-.387-.086-.772-.184-1.151-.3h-.008c-.063-.02-.129-.035-.192-.055h0c-.424-.134-.841-.29-1.251-.461h0c-.08-.034-.158-.068-.237-.1-.421-.183-.836-.38-1.242-.6C67.494,70.7,65.944,81.3,65.859,85.868h42.48C108.255,81.3,106.706,70.7,94.477,67.741Z" transform="translate(25.366 28.683)"/>
  <path id="Path_1934" data-name="Path 1934" class="cls-1" d="M18.655,63.683A52.621,52.621,0,0,1,45.188,29.774a22.648,22.648,0,0,1,3.681-6.862A57.335,57.335,0,0,0,13.112,67.364,15.456,15.456,0,0,1,18.655,63.683Z" transform="translate(-2.952 4.616)"/>
  <path id="Path_1935" data-name="Path 1935" class="cls-1" d="M67.3,29.773A52.618,52.618,0,0,1,93.836,63.684a15.459,15.459,0,0,1,5.543,3.679A57.329,57.329,0,0,0,63.623,22.911,22.642,22.642,0,0,1,67.3,29.773Z" transform="translate(24.166 4.616)"/>
  <path id="Path_1936" data-name="Path 1936" class="cls-1" d="M101.014,82.6a52.633,52.633,0,0,1-72.209,0H22.23a57.332,57.332,0,0,0,85.359,0h-6.575Z" transform="translate(1.943 36.663)"/>
</svg>
