<svg xmlns="http://www.w3.org/2000/svg" xmlns:xlink="http://www.w3.org/1999/xlink" width="376.678" height="350.805" viewBox="0 0 376.678 350.805">
  <defs>
    <style>
      .cls-1 {
        fill: #fff;
      }

      .cls-2, .cls-3, .cls-4 {
        fill: none;
        stroke-linecap: round;
      }

      .cls-2 {
        stroke: #ffb89b;
        stroke-width: 10px;
      }

      .cls-3 {
        stroke: #d3f3ff;
        stroke-width: 8px;
      }

      .cls-3, .cls-4 {
        stroke-linejoin: round;
        stroke-miterlimit: 10;
      }

      .cls-4 {
        stroke: #2d346a;
        stroke-width: 6px;
      }

      .cls-5 {
        fill: #fcbca3;
      }

      .cls-6 {
        fill: #ffb89b;
      }

      .cls-7 {
        fill: #ff8250;
      }

      .cls-8 {
        fill: #0c8ebe;
      }

      .cls-9 {
        filter: url(#Path_1276);
      }
    </style>
    <filter id="Path_1276" x="1.055" y="0" width="375.623" height="347.774" filterUnits="userSpaceOnUse">
      <feOffset dy="8" input="SourceAlpha"/>
      <feGaussianBlur stdDeviation="10" result="blur"/>
      <feFlood flood-color="#d8f4ff"/>
      <feComposite operator="in" in2="blur"/>
      <feComposite in="SourceGraphic"/>
    </filter>
  </defs>
  <g id="TPRM" transform="translate(-994 -5008)">
    <g id="stars" transform="translate(-4188.45 3820)">
      <g class="cls-9" transform="matrix(1, 0, 0, 1, 5182.45, 1188)">
        <path id="Path_1276-2" data-name="Path 1276" class="cls-1" d="M320.123,161.5A157.812,157.812,0,1,0,72.818,291.465H251.811A157.61,157.61,0,0,0,320.123,161.5Z" transform="translate(26.56 18.31)"/>
      </g>
      <path id="Path_1594" data-name="Path 1594" class="cls-2" d="M0,0H204.225" transform="translate(5269.522 1497.67)"/>
      <line id="Line_120" data-name="Line 120" class="cls-3" x2="133.422" transform="translate(5304.924 1516.24)"/>
      <line id="Line_121" data-name="Line 121" class="cls-3" x2="26.816" transform="translate(5346.621 1534.804)"/>
      <line id="Line_122" data-name="Line 122" class="cls-3" x2="7.168" transform="translate(5389.804 1534.804)"/>
      <path id="Path_1281" data-name="Path 1281" class="cls-4" d="M46.2,19.072" transform="translate(5406.918 1279.089)"/>
      <path id="Path_1282" data-name="Path 1282" class="cls-5" d="M69.182,31.371c-.011-1.153-.407-6.9-6.886-6.9h-.069a2.3,2.3,0,0,1,.057-4.591c1.153-.011,6.9-.407,6.9-6.886a2.3,2.3,0,0,1,4.591,0c0,6.479,5.744,6.875,6.9,6.886a2.3,2.3,0,0,1-.012,4.591c-6.479,0-6.875,5.75-6.886,6.886v.011c0,.017-.006.034,0,.034v.023a2.3,2.3,0,0,1-4.591-.057Z" transform="translate(5472.316 1239.423)"/>
      <path id="Path_1283" data-name="Path 1283" class="cls-6" d="M63.091,58.385a3.274,3.274,0,0,0-3.443-3.449h-.029a1.148,1.148,0,0,1,.023-2.3A3.274,3.274,0,0,0,63.091,49.2a1.148,1.148,0,1,1,2.3,0,3.274,3.274,0,0,0,3.449,3.443,1.148,1.148,0,0,1-.006,2.3,3.271,3.271,0,0,0-3.443,3.443v.006a.058.058,0,0,1-.006.017h.006v.011a1.148,1.148,0,0,1-2.3-.029Z" transform="translate(5470.208 1430.405)"/>
      <path id="Path_1284" data-name="Path 1284" class="cls-6" d="M10.091,22.758a3.274,3.274,0,0,0-3.443-3.449H6.619a1.148,1.148,0,0,1,.023-2.3,3.274,3.274,0,0,0,3.449-3.443,1.148,1.148,0,0,1,2.3,0,3.274,3.274,0,0,0,3.449,3.443,1.148,1.148,0,0,1-.006,2.3,3.272,3.272,0,0,0-3.443,3.443v.006a.058.058,0,0,1-.006.017h.006v.011a1.148,1.148,0,0,1-2.3-.029Z" transform="translate(5202.063 1231.582)"/>
      <path id="Path_1285" data-name="Path 1285" class="cls-7" d="M11.222,67.288c-.014-1.41-.5-8.431-8.417-8.431H2.721a2.806,2.806,0,0,1,.07-5.611c1.41-.014,8.431-.5,8.431-8.417a2.806,2.806,0,1,1,5.611,0c0,7.919,7.021,8.4,8.431,8.417a2.806,2.806,0,0,1-.014,5.611c-7.919,0-8.4,7.028-8.417,8.417v.014c0,.021-.007.042,0,.042v.028a2.806,2.806,0,0,1-5.611-.07Z" transform="translate(5182.45 1385.299)"/>
      <path id="Path_1286" data-name="Path 1286" class="cls-7" d="M62.282,53.427c-.011-1.153-.407-6.9-6.886-6.9h-.069a2.3,2.3,0,0,1,.057-4.591c1.153-.011,6.9-.407,6.9-6.886a2.3,2.3,0,1,1,4.591,0c0,6.479,5.744,6.875,6.9,6.886a2.3,2.3,0,0,1-.011,4.591c-6.479,0-6.875,5.75-6.886,6.886v.011c0,.017-.006.034,0,.034v.023a2.3,2.3,0,0,1-4.591-.057Z" transform="translate(5439.62 1343.937)"/>
    </g>
    <g id="icon" transform="translate(1084.798 5107.6)">
      <g id="Group_363" data-name="Group 363" transform="translate(5.202 9.4)">
        <path id="Path_568" data-name="Path 568" class="cls-8" d="M165.639,31.145h11.014a5.362,5.362,0,0,0,5.366-5.366V14.766A5.362,5.362,0,0,0,176.652,9.4H165.639a5.362,5.362,0,0,0-5.366,5.366v2.259h-25.7a2.515,2.515,0,0,0-2.259,1.412l-5.648,9.037A60.481,60.481,0,0,0,91.65,15.9,58.542,58.542,0,0,0,56.633,27.474l-5.648-9.037a2.88,2.88,0,0,0-2.259-1.412H22.462V14.766A5.362,5.362,0,0,0,17.1,9.4H6.366A5.362,5.362,0,0,0,1,14.766V25.779a5.362,5.362,0,0,0,5.366,5.366H17.379a5.362,5.362,0,0,0,5.366-5.366V22.673H47.031l4.8,8.19A60.139,60.139,0,0,0,31.5,73.222H22.462V70.681A5.362,5.362,0,0,0,17.1,65.315H6.366A5.362,5.362,0,0,0,1,70.681V81.694A5.362,5.362,0,0,0,6.366,87.06H17.379a5.362,5.362,0,0,0,5.366-5.366V78.87h9.037a60.139,60.139,0,0,0,20.333,42.36l-5.083,8.19H22.462v-3.106a5.362,5.362,0,0,0-5.366-5.366H6.366A5.362,5.362,0,0,0,1,126.313v11.014a5.362,5.362,0,0,0,5.366,5.366H17.379a5.362,5.362,0,0,0,5.366-5.366v-2.259h25.7a2.515,2.515,0,0,0,2.259-1.412l5.648-9.037A60.481,60.481,0,0,0,91.368,136.2a58.542,58.542,0,0,0,35.017-11.578l5.648,9.037a2.88,2.88,0,0,0,2.259,1.412h25.7v2.259a5.362,5.362,0,0,0,5.366,5.366H176.37a5.362,5.362,0,0,0,5.366-5.366V126.313a5.362,5.362,0,0,0-5.366-5.366H165.356a5.362,5.362,0,0,0-5.366,5.366v3.106H135.7l-4.8-8.19a60.139,60.139,0,0,0,20.333-42.36h9.037v2.542a5.362,5.362,0,0,0,5.366,5.366h11.014a5.362,5.362,0,0,0,5.366-5.366V70.4a5.362,5.362,0,0,0-5.366-5.366H165.639a5.362,5.362,0,0,0-5.366,5.366v2.824h-9.037A60.139,60.139,0,0,0,130.9,30.862l5.083-8.19h24.286v3.106A5.362,5.362,0,0,0,165.639,31.145Zm.282-15.814h10.166V25.5H165.921ZM16.814,25.5H6.648V15.33H16.814Zm0,55.633H6.648V70.963H16.814Zm0,55.633H6.648V126.6H16.814ZM165.921,126.6h10.166v10.166H165.921Zm0-55.633h10.166V81.129H165.921ZM126.1,76.046A34.735,34.735,0,1,1,91.368,41.311,34.71,34.71,0,0,1,126.1,76.046ZM88.544,21.826v14.12a40.224,40.224,0,0,0-30.5,17.509L45.9,46.394A53.835,53.835,0,0,1,88.544,21.826ZM42.8,51.2l12.143,7.06A41.272,41.272,0,0,0,50.7,76.046a36.484,36.484,0,0,0,4.236,17.509L42.8,100.615a55.6,55.6,0,0,1-5.93-24.851A56.257,56.257,0,0,1,42.8,51.2Zm2.824,54.5,12.143-7.06a40.224,40.224,0,0,0,30.5,17.509v14.12A54.709,54.709,0,0,1,45.619,105.7Zm48.573,24.569v-14.12a40.224,40.224,0,0,0,30.5-17.509l12.143,7.06A53.835,53.835,0,0,1,94.192,130.267ZM139.94,100.9,127.8,93.837a41.272,41.272,0,0,0,4.236-17.791A38.427,38.427,0,0,0,127.8,58.255L139.94,51.2a55.6,55.6,0,0,1,5.93,24.851A56.528,56.528,0,0,1,139.94,100.9Zm-2.824-54.5-12.426,7.06a40.224,40.224,0,0,0-30.5-17.509V21.826A54.786,54.786,0,0,1,137.116,46.394Z" transform="translate(-1 -9.4)"/>
      </g>
    </g>
  </g>
</svg>
