<svg xmlns="http://www.w3.org/2000/svg" xmlns:xlink="http://www.w3.org/1999/xlink" width="376.678" height="350.804" viewBox="0 0 376.678 350.804">
  <defs>
    <style>
      .cls-1 {
        fill: #fff;
      }

      .cls-2, .cls-3, .cls-4, .cls-9 {
        fill: none;
        stroke-linecap: round;
      }

      .cls-2 {
        stroke: #ffb89b;
        stroke-width: 10px;
      }

      .cls-3 {
        stroke: #d3f3ff;
        stroke-width: 8px;
      }

      .cls-3, .cls-4, .cls-9 {
        stroke-linejoin: round;
        stroke-miterlimit: 10;
      }

      .cls-4 {
        stroke: #2d346a;
        stroke-width: 6px;
      }

      .cls-5 {
        fill: #fcbca3;
      }

      .cls-6 {
        fill: #ffb89b;
      }

      .cls-7 {
        fill: #ff8250;
      }

      .cls-8 {
        fill: #d3f3ff;
      }

      .cls-9 {
        stroke: #0c8ebe;
        stroke-width: 6.4px;
      }

      .cls-10 {
        filter: url(#Path_1276);
      }
    </style>
    <filter id="Path_1276" x="1.055" y="0" width="375.623" height="347.774" filterUnits="userSpaceOnUse">
      <feOffset dy="8" input="SourceAlpha"/>
      <feGaussianBlur stdDeviation="10" result="blur"/>
      <feFlood flood-color="#d8f4ff"/>
      <feComposite operator="in" in2="blur"/>
      <feComposite in="SourceGraphic"/>
    </filter>
  </defs>
  <g id="Vendor-Risk-Assessment" transform="translate(-1007 -2547)">
    <g id="stars" transform="translate(-4175.45 1359)">
      <g class="cls-10" transform="matrix(1, 0, 0, 1, 5182.45, 1188)">
        <path id="Path_1276-2" data-name="Path 1276" class="cls-1" d="M320.123,161.5A157.812,157.812,0,1,0,72.818,291.465H251.811A157.61,157.61,0,0,0,320.123,161.5Z" transform="translate(26.56 18.31)"/>
      </g>
      <path id="Path_1594" data-name="Path 1594" class="cls-2" d="M0,0H204.225" transform="translate(5269.522 1497.67)"/>
      <line id="Line_120" data-name="Line 120" class="cls-3" x2="133.422" transform="translate(5304.924 1516.24)"/>
      <line id="Line_121" data-name="Line 121" class="cls-3" x2="26.816" transform="translate(5346.621 1534.804)"/>
      <line id="Line_122" data-name="Line 122" class="cls-3" x2="7.168" transform="translate(5389.804 1534.804)"/>
      <path id="Path_1281" data-name="Path 1281" class="cls-4" d="M46.2,19.072" transform="translate(5406.918 1279.089)"/>
      <path id="Path_1282" data-name="Path 1282" class="cls-5" d="M69.182,31.371c-.011-1.153-.407-6.9-6.886-6.9h-.069a2.3,2.3,0,0,1,.057-4.591c1.153-.011,6.9-.407,6.9-6.886a2.3,2.3,0,0,1,4.591,0c0,6.479,5.744,6.875,6.9,6.886a2.3,2.3,0,0,1-.012,4.591c-6.479,0-6.875,5.75-6.886,6.886v.011c0,.017-.006.034,0,.034v.023a2.3,2.3,0,0,1-4.591-.057Z" transform="translate(5472.316 1239.423)"/>
      <path id="Path_1283" data-name="Path 1283" class="cls-6" d="M63.091,58.385a3.274,3.274,0,0,0-3.443-3.449h-.029a1.148,1.148,0,0,1,.023-2.3A3.274,3.274,0,0,0,63.091,49.2a1.148,1.148,0,1,1,2.3,0,3.274,3.274,0,0,0,3.449,3.443,1.148,1.148,0,0,1-.006,2.3,3.271,3.271,0,0,0-3.443,3.443v.006a.058.058,0,0,1-.006.017h.006v.011a1.148,1.148,0,0,1-2.3-.029Z" transform="translate(5470.208 1430.405)"/>
      <path id="Path_1284" data-name="Path 1284" class="cls-6" d="M10.091,22.758a3.274,3.274,0,0,0-3.443-3.449H6.619a1.148,1.148,0,0,1,.023-2.3,3.274,3.274,0,0,0,3.449-3.443,1.148,1.148,0,0,1,2.3,0,3.274,3.274,0,0,0,3.449,3.443,1.148,1.148,0,0,1-.006,2.3,3.272,3.272,0,0,0-3.443,3.443v.006a.058.058,0,0,1-.006.017h.006v.011a1.148,1.148,0,0,1-2.3-.029Z" transform="translate(5202.063 1231.582)"/>
      <path id="Path_1285" data-name="Path 1285" class="cls-7" d="M11.222,67.288c-.014-1.41-.5-8.431-8.417-8.431H2.721a2.806,2.806,0,0,1,.07-5.611c1.41-.014,8.431-.5,8.431-8.417a2.806,2.806,0,1,1,5.611,0c0,7.919,7.021,8.4,8.431,8.417a2.806,2.806,0,0,1-.014,5.611c-7.919,0-8.4,7.028-8.417,8.417v.014c0,.021-.007.042,0,.042v.028a2.806,2.806,0,0,1-5.611-.07Z" transform="translate(5182.45 1385.299)"/>
      <path id="Path_1286" data-name="Path 1286" class="cls-7" d="M62.282,53.427c-.011-1.153-.407-6.9-6.886-6.9h-.069a2.3,2.3,0,0,1,.057-4.591c1.153-.011,6.9-.407,6.9-6.886a2.3,2.3,0,1,1,4.591,0c0,6.479,5.744,6.875,6.9,6.886a2.3,2.3,0,0,1-.011,4.591c-6.479,0-6.875,5.75-6.886,6.886v.011c0,.017-.006.034,0,.034v.023a2.3,2.3,0,0,1-4.591-.057Z" transform="translate(5439.62 1343.937)"/>
    </g>
    <g id="icon" transform="translate(974.608 2622.9)">
      <path id="Path_544" data-name="Path 544" class="cls-8" d="M2900.1,2729.544l-20.479,34.864h40.818Z" transform="translate(-2670.238 -2625.183)"/>
      <path id="Path_540" data-name="Path 540" class="cls-9" d="M160.175,45.1H33.5V151.048H160.175V104.964" transform="translate(99.892 0)"/>
      <path id="Path_541" data-name="Path 541" class="cls-9" d="M48,91.4,86.327,67.895l25.705,24.548L133.685,65" transform="translate(102.181 3.142)"/>
      <line id="Line_81" data-name="Line 81" class="cls-9" y2="20.726" transform="translate(196.729 151.511)"/>
      <line id="Line_82" data-name="Line 82" class="cls-9" x1="46.085" transform="translate(173.687 172.238)"/>
      <circle id="Ellipse_114" data-name="Ellipse 114" class="cls-9" cx="20.726" cy="20.726" r="20.726" transform="translate(238.642 65.029) rotate(-28.021)"/>
      <circle id="Ellipse_115" data-name="Ellipse 115" class="cls-8" cx="18.387" cy="18.387" r="18.387" transform="translate(241.807 65.995) rotate(-28.021)"/>
      <line id="Line_83" data-name="Line 83" class="cls-9" x2="4.168" y2="7.874" transform="translate(276.856 92.806)"/>
      <path id="Path_542" data-name="Path 542" class="cls-9" d="M183.807,126.512l-7.063,3.705a3,3,0,0,1-3.937-1.158L156.944,99.186a3,3,0,0,1,1.158-3.937l7.063-3.705A3,3,0,0,1,169.1,92.7l15.863,29.874A2.9,2.9,0,0,1,183.807,126.512Z" transform="translate(119.334 7.283)"/>
      <line id="Line_84" data-name="Line 84" class="cls-9" x2="52.916" transform="translate(153.424 118.859)"/>
      <line id="Line_85" data-name="Line 85" class="cls-9" x2="46.085" transform="translate(153.424 136.111)"/>
      <path id="Path_543" data-name="Path 543" class="cls-9" d="M119.995,93.8l11.347,19.684,11.347,19.684H97.3l11.347-19.684Z" transform="translate(109.966 7.69)"/>
      <line id="Line_86" data-name="Line 86" class="cls-9" y2="6.368" transform="translate(229.961 116.427)"/>
      <line id="Line_87" data-name="Line 87" class="cls-9" y2="1.505" transform="translate(229.961 130.553)"/>
    </g>
  </g>
</svg>
