<svg xmlns="http://www.w3.org/2000/svg" xmlns:xlink="http://www.w3.org/1999/xlink" width="182.406" height="171.605" viewBox="0 0 182.406 171.605">
  <defs>
    <style>
      .cls-1 {
        fill: #fff;
      }

      .cls-2, .cls-3, .cls-4 {
        fill: none;
        stroke-linecap: round;
      }

      .cls-2 {
        stroke: #ffb89b;
      }

      .cls-2, .cls-3 {
        stroke-width: 4px;
      }

      .cls-3 {
        stroke: #d3f3ff;
      }

      .cls-3, .cls-4 {
        stroke-linejoin: round;
        stroke-miterlimit: 10;
      }

      .cls-4 {
        stroke: #2d346a;
        stroke-width: 6px;
      }

      .cls-5 {
        fill: #fcbca3;
      }

      .cls-6 {
        fill: #ffb89b;
      }

      .cls-7 {
        fill: #ff8250;
      }

      .cls-8 {
        fill: #08b;
        fill-rule: evenodd;
      }

      .cls-9 {
        filter: url(#Path_1276);
      }
    </style>
    <filter id="Path_1276" x="0" y="0" width="182.406" height="171.605" filterUnits="userSpaceOnUse">
      <feOffset dy="8" input="SourceAlpha"/>
      <feGaussianBlur stdDeviation="10" result="blur"/>
      <feFlood flood-color="#d8f4ff"/>
      <feComposite operator="in" in2="blur"/>
      <feComposite in="SourceGraphic"/>
    </filter>
  </defs>
  <g id="zero-icon" transform="translate(-1004.044 -3608)">
    <g id="Graphic" transform="translate(1022 3630)">
      <g id="stars" transform="translate(0 0)">
        <g class="cls-9" transform="matrix(1, 0, 0, 1, -17.96, -22)">
          <path id="Path_1276-2" data-name="Path 1276" class="cls-1" d="M126.906,64.894A61.2,61.2,0,1,0,31,115.3h69.417A61.125,61.125,0,0,0,126.906,64.894Z" transform="translate(25.5 18.31)"/>
        </g>
        <path id="Path_1594" data-name="Path 1594" class="cls-2" d="M0,0H79.2" transform="translate(33.769 111.565)"/>
        <line id="Line_120" data-name="Line 120" class="cls-3" x2="51.744" transform="translate(47.498 118.767)"/>
        <line id="Line_121" data-name="Line 121" class="cls-3" x2="10.4" transform="translate(63.669 125.966)"/>
        <line id="Line_122" data-name="Line 122" class="cls-3" x2="2.78" transform="translate(80.417 125.966)"/>
        <path id="Path_1281" data-name="Path 1281" class="cls-4" d="M46.2,19.072" transform="translate(58.772 15.119)"/>
        <path id="Path_1282" data-name="Path 1282" class="cls-5" d="M63.561,18.717a2.539,2.539,0,0,0-2.671-2.675h-.027a.89.89,0,0,1,.022-1.78,2.539,2.539,0,0,0,2.675-2.671.89.89,0,0,1,1.78,0,2.539,2.539,0,0,0,2.675,2.671.89.89,0,0,1,0,1.78,2.539,2.539,0,0,0-2.671,2.671v0c0,.007,0,.013,0,.013v.009a.89.89,0,0,1-1.78-.022Z" transform="translate(75.686 4.86)"/>
        <path id="Path_1283" data-name="Path 1283" class="cls-6" d="M60.28,52.058a1.27,1.27,0,0,0-1.335-1.338h-.011a.445.445,0,0,1,.009-.89A1.27,1.27,0,0,0,60.28,48.5a.445.445,0,1,1,.89,0,1.27,1.27,0,0,0,1.338,1.335.445.445,0,0,1,0,.89,1.269,1.269,0,0,0-1.335,1.335v0a.022.022,0,0,1,0,.007h0v0a.445.445,0,0,1-.89-.011Z" transform="translate(75.787 56.063)"/>
        <path id="Path_1284" data-name="Path 1284" class="cls-6" d="M7.28,16.431a1.27,1.27,0,0,0-1.335-1.338H5.934a.445.445,0,0,1,.009-.89A1.27,1.27,0,0,0,7.28,12.868a.445.445,0,0,1,.89,0A1.27,1.27,0,0,0,9.508,14.2a.445.445,0,0,1,0,.89,1.269,1.269,0,0,0-1.335,1.335v0a.022.022,0,0,1,0,.007h0v0a.445.445,0,0,1-.89-.011Z" transform="translate(4.239 0.765)"/>
        <path id="Path_1285" data-name="Path 1285" class="cls-7" d="M4.352,51.822a3.1,3.1,0,0,0-3.264-3.27H1.055a1.088,1.088,0,0,1,.027-2.176,3.1,3.1,0,0,0,3.27-3.264,1.088,1.088,0,1,1,2.176,0A3.1,3.1,0,0,0,9.8,46.376a1.088,1.088,0,0,1-.005,2.176,3.1,3.1,0,0,0-3.264,3.264v.005c0,.008,0,.016,0,.016v.011a1.088,1.088,0,0,1-2.176-.027Z" transform="translate(0 42.259)"/>
        <path id="Path_1286" data-name="Path 1286" class="cls-7" d="M56.661,40.773A2.539,2.539,0,0,0,53.99,38.1h-.027a.89.89,0,0,1,.022-1.78,2.539,2.539,0,0,0,2.675-2.671.89.89,0,1,1,1.78,0,2.539,2.539,0,0,0,2.675,2.671.89.89,0,0,1,0,1.78,2.539,2.539,0,0,0-2.671,2.671v0c0,.007,0,.013,0,.013V40.8a.89.89,0,0,1-1.78-.022Z" transform="translate(67.23 31.891)"/>
      </g>
    </g>
    <g id="Group_655" data-name="Group 655" transform="translate(1070.223 3669.972)">
      <path id="Path_352" data-name="Path 352" class="cls-8" d="M579,383h9.444v16.385H579Z" transform="translate(-540.424 -355.597)"/>
      <path id="Path_353" data-name="Path 353" class="cls-8" d="M2.7,36.49c3.462-5.366,5.925-4.15,9.854-1.216,2.064-.286,3.2-.429,5.326-.715,3.4-1.86,2.4-6.082-1.132-7.155-2.13.215-2.863.286-4.993.572C9.888,31.91,3.963,34.558.9,31.41c2.264-3.291,4.527-6.511,6.791-9.8,2.2-.286,4.461-.572,6.724-.93C9.955,18.459,5.561,16.17,1.167,13.952-.3,12.235-.5,9.3.568,6.582c5.127,2.29,10.253,4.508,15.38,6.726l-3.6-8.156C12.418,2.5,13.151.93,15.414,0l8.522,14.81-.2-8.085c1-2.5,1.664-3.506,4.194-4.078l2.4,14.238L38.184,27.4V43.716L23.67,45.361C15.281,45.5,9.622,40.782,2.7,36.49Z" transform="translate(0.105)"/>
    </g>
  </g>
</svg>
