<svg xmlns="http://www.w3.org/2000/svg" xmlns:xlink="http://www.w3.org/1999/xlink" width="376.678" height="350.804" viewBox="0 0 376.678 350.804">
  <defs>
    <style>
      .cls-1 {
        fill: #fff;
      }

      .cls-2, .cls-3, .cls-4 {
        fill: none;
        stroke-linecap: round;
      }

      .cls-2 {
        stroke: #ffb89b;
        stroke-width: 10px;
      }

      .cls-3 {
        stroke: #d3f3ff;
        stroke-width: 8px;
      }

      .cls-3, .cls-4 {
        stroke-linejoin: round;
        stroke-miterlimit: 10;
      }

      .cls-4 {
        stroke: #2d346a;
        stroke-width: 6px;
      }

      .cls-5 {
        fill: #fcbca3;
      }

      .cls-6 {
        fill: #ffb89b;
      }

      .cls-7 {
        fill: #ff8250;
      }

      .cls-8 {
        fill: #0c8ebe;
      }

      .cls-9 {
        filter: url(#Path_1276);
      }
    </style>
    <filter id="Path_1276" x="1.055" y="0" width="375.623" height="347.774" filterUnits="userSpaceOnUse">
      <feOffset dy="8" input="SourceAlpha"/>
      <feGaussianBlur stdDeviation="10" result="blur"/>
      <feFlood flood-color="#d8f4ff"/>
      <feComposite operator="in" in2="blur"/>
      <feComposite in="SourceGraphic"/>
    </filter>
  </defs>
  <g id="Zero-Friction-UE" transform="translate(-347 -5591)">
    <g id="stars" transform="translate(-4835.45 4403)">
      <g class="cls-9" transform="matrix(1, 0, 0, 1, 5182.45, 1188)">
        <path id="Path_1276-2" data-name="Path 1276" class="cls-1" d="M320.123,161.5A157.812,157.812,0,1,0,72.818,291.465H251.811A157.61,157.61,0,0,0,320.123,161.5Z" transform="translate(26.56 18.31)"/>
      </g>
      <path id="Path_1594" data-name="Path 1594" class="cls-2" d="M0,0H204.225" transform="translate(5269.522 1497.67)"/>
      <line id="Line_120" data-name="Line 120" class="cls-3" x2="133.422" transform="translate(5304.924 1516.24)"/>
      <line id="Line_121" data-name="Line 121" class="cls-3" x2="26.816" transform="translate(5346.621 1534.804)"/>
      <line id="Line_122" data-name="Line 122" class="cls-3" x2="7.168" transform="translate(5389.804 1534.804)"/>
      <path id="Path_1281" data-name="Path 1281" class="cls-4" d="M46.2,19.072" transform="translate(5406.918 1279.089)"/>
      <path id="Path_1282" data-name="Path 1282" class="cls-5" d="M69.182,31.371c-.011-1.153-.407-6.9-6.886-6.9h-.069a2.3,2.3,0,0,1,.057-4.591c1.153-.011,6.9-.407,6.9-6.886a2.3,2.3,0,0,1,4.591,0c0,6.479,5.744,6.875,6.9,6.886a2.3,2.3,0,0,1-.012,4.591c-6.479,0-6.875,5.75-6.886,6.886v.011c0,.017-.006.034,0,.034v.023a2.3,2.3,0,0,1-4.591-.057Z" transform="translate(5472.316 1239.423)"/>
      <path id="Path_1283" data-name="Path 1283" class="cls-6" d="M63.091,58.385a3.274,3.274,0,0,0-3.443-3.449h-.029a1.148,1.148,0,0,1,.023-2.3A3.274,3.274,0,0,0,63.091,49.2a1.148,1.148,0,1,1,2.3,0,3.274,3.274,0,0,0,3.449,3.443,1.148,1.148,0,0,1-.006,2.3,3.271,3.271,0,0,0-3.443,3.443v.006a.058.058,0,0,1-.006.017h.006v.011a1.148,1.148,0,0,1-2.3-.029Z" transform="translate(5470.208 1430.405)"/>
      <path id="Path_1284" data-name="Path 1284" class="cls-6" d="M10.091,22.758a3.274,3.274,0,0,0-3.443-3.449H6.619a1.148,1.148,0,0,1,.023-2.3,3.274,3.274,0,0,0,3.449-3.443,1.148,1.148,0,0,1,2.3,0,3.274,3.274,0,0,0,3.449,3.443,1.148,1.148,0,0,1-.006,2.3,3.272,3.272,0,0,0-3.443,3.443v.006a.058.058,0,0,1-.006.017h.006v.011a1.148,1.148,0,0,1-2.3-.029Z" transform="translate(5202.063 1231.582)"/>
      <path id="Path_1285" data-name="Path 1285" class="cls-7" d="M11.222,67.288c-.014-1.41-.5-8.431-8.417-8.431H2.721a2.806,2.806,0,0,1,.07-5.611c1.41-.014,8.431-.5,8.431-8.417a2.806,2.806,0,1,1,5.611,0c0,7.919,7.021,8.4,8.431,8.417a2.806,2.806,0,0,1-.014,5.611c-7.919,0-8.4,7.028-8.417,8.417v.014c0,.021-.007.042,0,.042v.028a2.806,2.806,0,0,1-5.611-.07Z" transform="translate(5182.45 1385.299)"/>
      <path id="Path_1286" data-name="Path 1286" class="cls-7" d="M62.282,53.427c-.011-1.153-.407-6.9-6.886-6.9h-.069a2.3,2.3,0,0,1,.057-4.591c1.153-.011,6.9-.407,6.9-6.886a2.3,2.3,0,1,1,4.591,0c0,6.479,5.744,6.875,6.9,6.886a2.3,2.3,0,0,1-.011,4.591c-6.479,0-6.875,5.75-6.886,6.886v.011c0,.017-.006.034,0,.034v.023a2.3,2.3,0,0,1-4.591-.057Z" transform="translate(5439.62 1343.937)"/>
    </g>
    <g id="icon" transform="translate(431 5708.999)">
      <path id="Path_460" data-name="Path 460" class="cls-8" d="M166.517,11.759a7.325,7.325,0,0,0-2.18-5.26,7.446,7.446,0,0,0-5.287-2.227H32.738a7.457,7.457,0,0,0-5.26,2.193,7.343,7.343,0,0,0-2.214,5.287v3.385H0V54.746H25.264V90.7H11.508v8.97a8.991,8.991,0,0,0,8.99,8.983H171.283a9,9,0,0,0,8.99-8.983V90.7H166.531V11.759ZM59.816,54.746V21.06h89.927V90.685H42.046V54.739l17.77.007ZM31.187,11.759a1.508,1.508,0,0,1,.474-1.1,1.555,1.555,0,0,1,1.076-.46H159.044a1.526,1.526,0,0,1,1.1.494,1.461,1.461,0,0,1,.447,1.076V90.692h-4.935V15.144H31.187ZM5.923,21.06H53.9V48.836H5.923Zm30.2,33.685V90.692H31.187V54.746h4.935ZM174.35,96.609v3.053a3.074,3.074,0,0,1-3.067,3.06H20.491a3.052,3.052,0,0,1-2.173-.9,3.019,3.019,0,0,1-.894-2.159V96.609H174.35Z" transform="translate(0 24.642)"/>
      <path id="Path_461" data-name="Path 461" class="cls-8" d="M39.655,67.091A29.911,29.911,0,1,0,9.747,37.176,29.947,29.947,0,0,0,39.655,67.091Zm-9.437-7.859a10.89,10.89,0,0,1,18.887-.007,23.961,23.961,0,0,1-18.887.007ZM33.63,37.169a6.032,6.032,0,1,1,6.025,6.052A6.028,6.028,0,0,1,33.63,37.169Zm6.025-23.985A23.9,23.9,0,0,1,54.209,56.124a16.946,16.946,0,0,0-10.527-7.744,11.965,11.965,0,1,0-8.069-.007,16.841,16.841,0,0,0-10.527,7.751A23.9,23.9,0,0,1,39.655,13.185Z" transform="translate(56.236 41.927)"/>
      <rect id="Rectangle_603" data-name="Rectangle 603" class="cls-8" width="26.719" height="5.917" transform="translate(47.732 0.001)"/>
      <rect id="Rectangle_604" data-name="Rectangle 604" class="cls-8" width="48.869" height="5.923" transform="translate(59.538 9.634)"/>
      <rect id="Rectangle_605" data-name="Rectangle 605" class="cls-8" width="16.233" height="5.917" transform="translate(13.065 61.441)"/>
      <rect id="Rectangle_606" data-name="Rectangle 606" class="cls-8" width="33.692" height="5.917" transform="translate(13.065 51.822)"/>
      <path id="Path_462" data-name="Path 462" class="cls-8" d="M54.613,21.951,25.734,11.492,36.213,40.371l7.108-7.122,6.357,6.35,4.177-4.177L47.5,29.066Zm-19-.589,8.239,2.979-5.24,5.246Z" transform="translate(148.474 66.298)"/>
      <rect id="Rectangle_607" data-name="Rectangle 607" class="cls-8" width="5.917" height="5.923" transform="translate(126.929 62.545)"/>
      <rect id="Rectangle_608" data-name="Rectangle 608" class="cls-8" width="5.619" height="5.923" transform="translate(172.224 62.545)"/>
      <rect id="Rectangle_609" data-name="Rectangle 609" class="cls-8" width="5.625" height="5.923" transform="translate(138.471 62.545)"/>
      <rect id="Rectangle_610" data-name="Rectangle 610" class="cls-8" width="5.923" height="5.923" transform="translate(183.482 62.545)"/>
      <rect id="Rectangle_611" data-name="Rectangle 611" class="cls-8" width="5.923" height="5.625" transform="translate(183.482 51.287)"/>
      <rect id="Rectangle_612" data-name="Rectangle 612" class="cls-8" width="5.923" height="5.625" transform="translate(183.482 28.785)"/>
      <rect id="Rectangle_613" data-name="Rectangle 613" class="cls-8" width="5.923" height="5.625" transform="translate(183.482 17.534)"/>
      <rect id="Rectangle_614" data-name="Rectangle 614" class="cls-8" width="5.923" height="5.625" transform="translate(183.482 40.036)"/>
      <rect id="Rectangle_615" data-name="Rectangle 615" class="cls-8" width="5.923" height="5.923" transform="translate(183.482 5.985)"/>
      <rect id="Rectangle_616" data-name="Rectangle 616" class="cls-8" width="5.619" height="5.923" transform="translate(160.973 5.985)"/>
      <rect id="Rectangle_617" data-name="Rectangle 617" class="cls-8" width="5.625" height="5.923" transform="translate(138.471 5.985)"/>
      <rect id="Rectangle_618" data-name="Rectangle 618" class="cls-8" width="5.625" height="5.923" transform="translate(149.722 5.985)"/>
      <rect id="Rectangle_619" data-name="Rectangle 619" class="cls-8" width="5.619" height="5.923" transform="translate(172.224 5.985)"/>
      <rect id="Rectangle_620" data-name="Rectangle 620" class="cls-8" width="5.917" height="5.923" transform="translate(126.929 5.985)"/>
      <rect id="Rectangle_621" data-name="Rectangle 621" class="cls-8" width="5.917" height="5.625" transform="translate(126.929 17.534)"/>
      <rect id="Rectangle_622" data-name="Rectangle 622" class="cls-8" width="5.917" height="5.625" transform="translate(126.929 51.287)"/>
    </g>
  </g>
</svg>
